<svg xmlns="http://www.w3.org/2000/svg" xmlns:xlink="http://www.w3.org/1999/xlink" width="255" zoomAndPan="magnify" viewBox="0 0 191.25 41.25" height="55" preserveAspectRatio="xMidYMid meet" version="1.0"><defs><g/><clipPath id="f6c03afd47"><path d="M 10 1.390625 L 36 1.390625 L 36 28 L 10 28 Z M 10 1.390625 " clip-rule="nonzero"/></clipPath><clipPath id="2f2481cedb"><path d="M 35 29 L 42.882812 29 L 42.882812 36.746094 L 35 36.746094 Z M 35 29 " clip-rule="nonzero"/></clipPath><clipPath id="4a85ae0c21"><path d="M 3.105469 29 L 11 29 L 11 36.746094 L 3.105469 36.746094 Z M 3.105469 29 " clip-rule="nonzero"/></clipPath></defs><g fill="#004aad" fill-opacity="1"><g transform="translate(47.859511, 19.308771)"><g><path d="M 2.484375 -10.234375 L 3.921875 -10.234375 C 4.523438 -10.234375 4.984375 -10.078125 5.296875 -9.765625 C 5.609375 -9.453125 5.765625 -8.992188 5.765625 -8.390625 L 5.765625 -7.03125 C 5.765625 -6.894531 5.691406 -6.828125 5.546875 -6.828125 L 4.21875 -6.828125 C 4.082031 -6.828125 4.015625 -6.894531 4.015625 -7.03125 L 4.015625 -8.03125 C 4.015625 -8.375 3.84375 -8.546875 3.5 -8.546875 L 2.890625 -8.546875 C 2.546875 -8.546875 2.375 -8.375 2.375 -8.03125 L 2.375 -6.265625 L 5.421875 -5.265625 C 5.648438 -5.171875 5.765625 -5.015625 5.765625 -4.796875 L 5.765625 -1.84375 C 5.765625 -1.25 5.609375 -0.789062 5.296875 -0.46875 C 4.984375 -0.15625 4.523438 0 3.921875 0 L 2.484375 0 C 1.890625 0 1.429688 -0.15625 1.109375 -0.46875 C 0.796875 -0.789062 0.640625 -1.25 0.640625 -1.84375 L 0.640625 -3.1875 C 0.640625 -3.320312 0.707031 -3.390625 0.84375 -3.390625 L 2.171875 -3.390625 C 2.304688 -3.390625 2.375 -3.320312 2.375 -3.1875 L 2.375 -2.203125 C 2.375 -1.859375 2.546875 -1.6875 2.890625 -1.6875 L 3.5 -1.6875 C 3.84375 -1.6875 4.015625 -1.859375 4.015625 -2.203125 L 4.015625 -3.90625 L 0.984375 -4.90625 C 0.753906 -4.976562 0.640625 -5.132812 0.640625 -5.375 L 0.640625 -8.390625 C 0.640625 -8.992188 0.796875 -9.453125 1.109375 -9.765625 C 1.429688 -10.078125 1.890625 -10.234375 2.484375 -10.234375 Z M 2.484375 -10.234375 "/></g></g></g><g fill="#004aad" fill-opacity="1"><g transform="translate(54.252985, 19.308771)"><g><path d="M 0.640625 -0.203125 L 0.640625 -10.03125 C 0.640625 -10.164062 0.707031 -10.234375 0.84375 -10.234375 L 3.921875 -10.234375 C 4.523438 -10.234375 4.984375 -10.078125 5.296875 -9.765625 C 5.609375 -9.453125 5.765625 -8.988281 5.765625 -8.375 L 5.765625 -1.84375 C 5.765625 -1.25 5.609375 -0.789062 5.296875 -0.46875 C 4.984375 -0.15625 4.523438 0 3.921875 0 L 0.84375 0 C 0.707031 0 0.640625 -0.0664062 0.640625 -0.203125 Z M 2.375 -1.6875 L 3.5625 -1.6875 C 3.894531 -1.6875 4.0625 -1.859375 4.0625 -2.203125 L 4.0625 -8.03125 C 4.0625 -8.375 3.894531 -8.546875 3.5625 -8.546875 L 2.375 -8.546875 Z M 2.375 -1.6875 "/></g></g></g><g fill="#004aad" fill-opacity="1"><g transform="translate(60.64646, 19.308771)"><g/></g></g><g fill="#004aad" fill-opacity="1"><g transform="translate(63.843197, 19.308771)"><g><path d="M 4.5625 -10.234375 L 5.90625 -10.234375 C 6.039062 -10.234375 6.109375 -10.164062 6.109375 -10.03125 L 6.109375 -0.203125 C 6.109375 -0.0664062 6.039062 0 5.90625 0 L 4.625 0 C 4.507812 0 4.4375 -0.0546875 4.40625 -0.171875 L 2.4375 -5.625 L 2.375 -5.625 L 2.375 -0.203125 C 2.375 -0.0664062 2.304688 0 2.171875 0 L 0.84375 0 C 0.707031 0 0.640625 -0.0664062 0.640625 -0.203125 L 0.640625 -10.03125 C 0.640625 -10.164062 0.707031 -10.234375 0.84375 -10.234375 L 2.109375 -10.234375 C 2.234375 -10.234375 2.3125 -10.179688 2.34375 -10.078125 L 4.28125 -4.625 L 4.359375 -4.625 L 4.359375 -10.03125 C 4.359375 -10.164062 4.425781 -10.234375 4.5625 -10.234375 Z M 4.5625 -10.234375 "/></g></g></g><g fill="#004aad" fill-opacity="1"><g transform="translate(70.581922, 19.308771)"><g><path d="M 5.75 -10.03125 L 5.75 -8.75 C 5.75 -8.601562 5.679688 -8.53125 5.546875 -8.53125 L 2.34375 -8.53125 L 2.34375 -5.96875 L 4.78125 -5.96875 C 4.914062 -5.96875 4.984375 -5.898438 4.984375 -5.765625 L 4.984375 -4.484375 C 4.984375 -4.347656 4.914062 -4.28125 4.78125 -4.28125 L 2.34375 -4.28125 L 2.34375 -1.6875 L 5.546875 -1.6875 C 5.679688 -1.6875 5.75 -1.617188 5.75 -1.484375 L 5.75 -0.203125 C 5.75 -0.0664062 5.679688 0 5.546875 0 L 0.828125 0 C 0.703125 0 0.640625 -0.0664062 0.640625 -0.203125 L 0.640625 -10.03125 C 0.640625 -10.164062 0.703125 -10.234375 0.828125 -10.234375 L 5.546875 -10.234375 C 5.679688 -10.234375 5.75 -10.164062 5.75 -10.03125 Z M 5.75 -10.03125 "/></g></g></g><g fill="#004aad" fill-opacity="1"><g transform="translate(76.962606, 19.308771)"><g><path d="M 0.640625 -1.84375 L 0.640625 -8.390625 C 0.640625 -8.992188 0.796875 -9.453125 1.109375 -9.765625 C 1.429688 -10.078125 1.890625 -10.234375 2.484375 -10.234375 L 4.171875 -10.234375 C 4.765625 -10.234375 5.21875 -10.078125 5.53125 -9.765625 C 5.851562 -9.453125 6.015625 -8.992188 6.015625 -8.390625 L 6.015625 -7.0625 C 6.015625 -6.925781 5.945312 -6.859375 5.8125 -6.859375 L 4.53125 -6.859375 C 4.394531 -6.859375 4.328125 -6.925781 4.328125 -7.0625 L 4.328125 -8.03125 C 4.328125 -8.375 4.15625 -8.546875 3.8125 -8.546875 L 2.890625 -8.546875 C 2.546875 -8.546875 2.375 -8.375 2.375 -8.03125 L 2.375 -2.203125 C 2.375 -1.859375 2.546875 -1.6875 2.890625 -1.6875 L 3.8125 -1.6875 C 4.15625 -1.6875 4.328125 -1.859375 4.328125 -2.203125 L 4.328125 -3.921875 L 3.65625 -3.921875 C 3.519531 -3.921875 3.453125 -3.988281 3.453125 -4.125 L 3.453125 -5.40625 C 3.453125 -5.539062 3.519531 -5.609375 3.65625 -5.609375 L 5.8125 -5.609375 C 5.945312 -5.609375 6.015625 -5.539062 6.015625 -5.40625 L 6.015625 -1.84375 C 6.015625 -1.25 5.851562 -0.789062 5.53125 -0.46875 C 5.21875 -0.15625 4.765625 0 4.171875 0 L 2.484375 0 C 1.890625 0 1.429688 -0.15625 1.109375 -0.46875 C 0.796875 -0.789062 0.640625 -1.25 0.640625 -1.84375 Z M 0.640625 -1.84375 "/></g></g></g><g fill="#004aad" fill-opacity="1"><g transform="translate(83.611818, 19.308771)"><g><path d="M 5.75 -10.03125 L 5.75 -8.75 C 5.75 -8.601562 5.679688 -8.53125 5.546875 -8.53125 L 2.34375 -8.53125 L 2.34375 -5.96875 L 4.78125 -5.96875 C 4.914062 -5.96875 4.984375 -5.898438 4.984375 -5.765625 L 4.984375 -4.484375 C 4.984375 -4.347656 4.914062 -4.28125 4.78125 -4.28125 L 2.34375 -4.28125 L 2.34375 -1.6875 L 5.546875 -1.6875 C 5.679688 -1.6875 5.75 -1.617188 5.75 -1.484375 L 5.75 -0.203125 C 5.75 -0.0664062 5.679688 0 5.546875 0 L 0.828125 0 C 0.703125 0 0.640625 -0.0664062 0.640625 -0.203125 L 0.640625 -10.03125 C 0.640625 -10.164062 0.703125 -10.234375 0.828125 -10.234375 L 5.546875 -10.234375 C 5.679688 -10.234375 5.75 -10.164062 5.75 -10.03125 Z M 5.75 -10.03125 "/></g></g></g><g fill="#004aad" fill-opacity="1"><g transform="translate(89.992502, 19.308771)"><g><path d="M 5.90625 -8.390625 L 5.90625 -5.265625 C 5.90625 -4.421875 5.59375 -3.859375 4.96875 -3.578125 L 5.84375 -0.234375 C 5.882812 -0.078125 5.828125 0 5.671875 0 L 4.34375 0 C 4.21875 0 4.144531 -0.0546875 4.125 -0.171875 L 3.265625 -3.421875 L 2.375 -3.421875 L 2.375 -0.203125 C 2.375 -0.0664062 2.304688 0 2.171875 0 L 0.84375 0 C 0.707031 0 0.640625 -0.0664062 0.640625 -0.203125 L 0.640625 -10.03125 C 0.640625 -10.164062 0.707031 -10.234375 0.84375 -10.234375 L 4.0625 -10.234375 C 4.664062 -10.234375 5.125 -10.078125 5.4375 -9.765625 C 5.75 -9.453125 5.90625 -8.992188 5.90625 -8.390625 Z M 2.375 -5.125 L 3.640625 -5.125 C 3.984375 -5.125 4.15625 -5.289062 4.15625 -5.625 L 4.15625 -8.03125 C 4.15625 -8.375 3.984375 -8.546875 3.640625 -8.546875 L 2.375 -8.546875 Z M 2.375 -5.125 "/></g></g></g><g fill="#004aad" fill-opacity="1"><g transform="translate(96.52663, 19.308771)"><g><path d="M 0.84375 -10.234375 L 2.171875 -10.234375 C 2.304688 -10.234375 2.375 -10.164062 2.375 -10.03125 L 2.375 -0.203125 C 2.375 -0.0664062 2.304688 0 2.171875 0 L 0.84375 0 C 0.707031 0 0.640625 -0.0664062 0.640625 -0.203125 L 0.640625 -10.03125 C 0.640625 -10.164062 0.707031 -10.234375 0.84375 -10.234375 Z M 0.84375 -10.234375 "/></g></g></g><g fill="#004aad" fill-opacity="1"><g transform="translate(99.544352, 19.308771)"><g/></g></g><g fill="#004aad" fill-opacity="1"><g transform="translate(102.74109, 19.308771)"><g><path d="M 2.859375 -6.28125 L 3.96875 -6.28125 C 4.550781 -6.28125 4.992188 -6.125 5.296875 -5.8125 C 5.609375 -5.507812 5.765625 -5.066406 5.765625 -4.484375 L 5.765625 -1.796875 C 5.765625 -1.210938 5.609375 -0.765625 5.296875 -0.453125 C 4.992188 -0.148438 4.550781 0 3.96875 0 L 2.4375 0 C 1.851562 0 1.40625 -0.148438 1.09375 -0.453125 C 0.789062 -0.765625 0.640625 -1.210938 0.640625 -1.796875 L 0.640625 -5.078125 C 0.640625 -5.203125 0.648438 -5.3125 0.671875 -5.40625 C 0.691406 -5.5 0.722656 -5.601562 0.765625 -5.71875 L 2.578125 -10.046875 C 2.628906 -10.171875 2.726562 -10.234375 2.875 -10.234375 L 4.203125 -10.234375 C 4.421875 -10.234375 4.488281 -10.132812 4.40625 -9.9375 Z M 2.84375 -1.6875 L 3.5625 -1.6875 C 3.894531 -1.6875 4.0625 -1.859375 4.0625 -2.203125 L 4.0625 -4.078125 C 4.0625 -4.421875 3.894531 -4.59375 3.5625 -4.59375 L 2.84375 -4.59375 C 2.5 -4.59375 2.328125 -4.421875 2.328125 -4.078125 L 2.328125 -2.203125 C 2.328125 -1.859375 2.5 -1.6875 2.84375 -1.6875 Z M 2.84375 -1.6875 "/></g></g></g><g fill="#004aad" fill-opacity="1"><g transform="translate(109.134564, 19.308771)"><g><path d="M 5.765625 -8.390625 L 5.765625 -6.046875 C 5.765625 -5.804688 5.6875 -5.601562 5.53125 -5.4375 C 5.382812 -5.28125 5.195312 -5.175781 4.96875 -5.125 L 4.96875 -5.109375 C 5.195312 -5.078125 5.382812 -4.976562 5.53125 -4.8125 C 5.6875 -4.644531 5.765625 -4.441406 5.765625 -4.203125 L 5.765625 -1.84375 C 5.765625 -1.25 5.609375 -0.789062 5.296875 -0.46875 C 4.984375 -0.15625 4.523438 0 3.921875 0 L 2.4375 0 C 1.851562 0 1.40625 -0.148438 1.09375 -0.453125 C 0.789062 -0.765625 0.640625 -1.210938 0.640625 -1.796875 L 0.640625 -2.21875 C 0.640625 -2.382812 0.722656 -2.46875 0.890625 -2.46875 L 2.125 -2.46875 C 2.289062 -2.46875 2.375 -2.382812 2.375 -2.21875 L 2.375 -1.6875 L 3.8125 -1.6875 C 3.976562 -1.6875 4.0625 -1.769531 4.0625 -1.9375 L 4.0625 -3.765625 C 4.0625 -4.109375 3.894531 -4.28125 3.5625 -4.28125 L 2.046875 -4.28125 C 1.878906 -4.28125 1.796875 -4.363281 1.796875 -4.53125 L 1.796875 -5.703125 C 1.796875 -5.878906 1.878906 -5.96875 2.046875 -5.96875 L 3.5625 -5.96875 C 3.894531 -5.96875 4.0625 -6.132812 4.0625 -6.46875 L 4.0625 -8.296875 C 4.0625 -8.460938 3.976562 -8.546875 3.8125 -8.546875 L 2.375 -8.546875 L 2.375 -8.03125 C 2.375 -7.851562 2.289062 -7.765625 2.125 -7.765625 L 0.890625 -7.765625 C 0.722656 -7.765625 0.640625 -7.851562 0.640625 -8.03125 L 0.640625 -8.546875 C 0.640625 -9.097656 0.789062 -9.515625 1.09375 -9.796875 C 1.40625 -10.085938 1.851562 -10.234375 2.4375 -10.234375 L 3.921875 -10.234375 C 4.523438 -10.234375 4.984375 -10.078125 5.296875 -9.765625 C 5.609375 -9.453125 5.765625 -8.992188 5.765625 -8.390625 Z M 5.765625 -8.390625 "/></g></g></g><g fill="#004aad" fill-opacity="1"><g transform="translate(115.54083, 19.308771)"><g/></g></g><g fill="#004aad" fill-opacity="1"><g transform="translate(118.737567, 19.308771)"><g><path d="M 6.109375 0 L 4.765625 0 C 4.617188 0 4.519531 -0.0625 4.46875 -0.1875 L 2.859375 -4 L 2.375 -3.078125 L 2.375 -0.25 C 2.375 -0.0820312 2.289062 0 2.125 0 L 0.890625 0 C 0.722656 0 0.640625 -0.0820312 0.640625 -0.25 L 0.640625 -9.984375 C 0.640625 -10.148438 0.722656 -10.234375 0.890625 -10.234375 L 2.125 -10.234375 C 2.289062 -10.234375 2.375 -10.148438 2.375 -9.984375 L 2.375 -6.015625 L 4.34375 -10.046875 C 4.414062 -10.171875 4.515625 -10.234375 4.640625 -10.234375 L 5.984375 -10.234375 C 6.078125 -10.234375 6.140625 -10.207031 6.171875 -10.15625 C 6.210938 -10.101562 6.210938 -10.03125 6.171875 -9.9375 L 4 -5.46875 L 6.3125 -0.296875 C 6.351562 -0.210938 6.351562 -0.140625 6.3125 -0.078125 C 6.28125 -0.0234375 6.210938 0 6.109375 0 Z M 6.109375 0 "/></g></g></g><g fill="#004aad" fill-opacity="1"><g transform="translate(125.591376, 19.308771)"><g><path d="M 5.75 -10.03125 L 5.75 -8.75 C 5.75 -8.601562 5.679688 -8.53125 5.546875 -8.53125 L 2.34375 -8.53125 L 2.34375 -5.96875 L 4.78125 -5.96875 C 4.914062 -5.96875 4.984375 -5.898438 4.984375 -5.765625 L 4.984375 -4.484375 C 4.984375 -4.347656 4.914062 -4.28125 4.78125 -4.28125 L 2.34375 -4.28125 L 2.34375 -1.6875 L 5.546875 -1.6875 C 5.679688 -1.6875 5.75 -1.617188 5.75 -1.484375 L 5.75 -0.203125 C 5.75 -0.0664062 5.679688 0 5.546875 0 L 0.828125 0 C 0.703125 0 0.640625 -0.0664062 0.640625 -0.203125 L 0.640625 -10.03125 C 0.640625 -10.164062 0.703125 -10.234375 0.828125 -10.234375 L 5.546875 -10.234375 C 5.679688 -10.234375 5.75 -10.164062 5.75 -10.03125 Z M 5.75 -10.03125 "/></g></g></g><g fill="#004aad" fill-opacity="1"><g transform="translate(131.97206, 19.308771)"><g><path d="M 0.640625 -0.203125 L 0.640625 -10.03125 C 0.640625 -10.164062 0.707031 -10.234375 0.84375 -10.234375 L 3.921875 -10.234375 C 4.523438 -10.234375 4.984375 -10.078125 5.296875 -9.765625 C 5.609375 -9.453125 5.765625 -8.988281 5.765625 -8.375 L 5.765625 -1.84375 C 5.765625 -1.25 5.609375 -0.789062 5.296875 -0.46875 C 4.984375 -0.15625 4.523438 0 3.921875 0 L 0.84375 0 C 0.707031 0 0.640625 -0.0664062 0.640625 -0.203125 Z M 2.375 -1.6875 L 3.5625 -1.6875 C 3.894531 -1.6875 4.0625 -1.859375 4.0625 -2.203125 L 4.0625 -8.03125 C 4.0625 -8.375 3.894531 -8.546875 3.5625 -8.546875 L 2.375 -8.546875 Z M 2.375 -1.6875 "/></g></g></g><g fill="#004aad" fill-opacity="1"><g transform="translate(138.365534, 19.308771)"><g><path d="M 4.328125 -10.234375 L 5.5 -10.234375 C 5.570312 -10.234375 5.632812 -10.207031 5.6875 -10.15625 C 5.738281 -10.101562 5.765625 -10.046875 5.765625 -9.984375 L 5.765625 -1.84375 C 5.765625 -1.25 5.609375 -0.789062 5.296875 -0.46875 C 4.984375 -0.15625 4.523438 0 3.921875 0 L 2.484375 0 C 1.890625 0 1.429688 -0.15625 1.109375 -0.46875 C 0.796875 -0.789062 0.640625 -1.25 0.640625 -1.84375 L 0.640625 -9.984375 C 0.640625 -10.046875 0.664062 -10.101562 0.71875 -10.15625 C 0.769531 -10.207031 0.828125 -10.234375 0.890625 -10.234375 L 2.125 -10.234375 C 2.195312 -10.234375 2.253906 -10.207031 2.296875 -10.15625 C 2.347656 -10.101562 2.375 -10.046875 2.375 -9.984375 L 2.375 -2.203125 C 2.375 -1.859375 2.546875 -1.6875 2.890625 -1.6875 L 3.5625 -1.6875 C 3.894531 -1.6875 4.0625 -1.859375 4.0625 -2.203125 L 4.0625 -9.984375 C 4.0625 -10.046875 4.085938 -10.101562 4.140625 -10.15625 C 4.191406 -10.207031 4.253906 -10.234375 4.328125 -10.234375 Z M 4.328125 -10.234375 "/></g></g></g><g fill="#004aad" fill-opacity="1"><g transform="translate(144.759009, 19.308771)"><g><path d="M 4.5625 -10.234375 L 5.90625 -10.234375 C 6.039062 -10.234375 6.109375 -10.164062 6.109375 -10.03125 L 6.109375 -0.203125 C 6.109375 -0.0664062 6.039062 0 5.90625 0 L 4.625 0 C 4.507812 0 4.4375 -0.0546875 4.40625 -0.171875 L 2.4375 -5.625 L 2.375 -5.625 L 2.375 -0.203125 C 2.375 -0.0664062 2.304688 0 2.171875 0 L 0.84375 0 C 0.707031 0 0.640625 -0.0664062 0.640625 -0.203125 L 0.640625 -10.03125 C 0.640625 -10.164062 0.707031 -10.234375 0.84375 -10.234375 L 2.109375 -10.234375 C 2.234375 -10.234375 2.3125 -10.179688 2.34375 -10.078125 L 4.28125 -4.625 L 4.359375 -4.625 L 4.359375 -10.03125 C 4.359375 -10.164062 4.425781 -10.234375 4.5625 -10.234375 Z M 4.5625 -10.234375 "/></g></g></g><g fill="#004aad" fill-opacity="1"><g transform="translate(151.497734, 19.308771)"><g><path d="M 0.640625 -1.84375 L 0.640625 -8.390625 C 0.640625 -8.992188 0.796875 -9.453125 1.109375 -9.765625 C 1.429688 -10.078125 1.890625 -10.234375 2.484375 -10.234375 L 4.171875 -10.234375 C 4.765625 -10.234375 5.21875 -10.078125 5.53125 -9.765625 C 5.851562 -9.453125 6.015625 -8.992188 6.015625 -8.390625 L 6.015625 -7.0625 C 6.015625 -6.925781 5.945312 -6.859375 5.8125 -6.859375 L 4.53125 -6.859375 C 4.394531 -6.859375 4.328125 -6.925781 4.328125 -7.0625 L 4.328125 -8.03125 C 4.328125 -8.375 4.15625 -8.546875 3.8125 -8.546875 L 2.890625 -8.546875 C 2.546875 -8.546875 2.375 -8.375 2.375 -8.03125 L 2.375 -2.203125 C 2.375 -1.859375 2.546875 -1.6875 2.890625 -1.6875 L 3.8125 -1.6875 C 4.15625 -1.6875 4.328125 -1.859375 4.328125 -2.203125 L 4.328125 -3.921875 L 3.65625 -3.921875 C 3.519531 -3.921875 3.453125 -3.988281 3.453125 -4.125 L 3.453125 -5.40625 C 3.453125 -5.539062 3.519531 -5.609375 3.65625 -5.609375 L 5.8125 -5.609375 C 5.945312 -5.609375 6.015625 -5.539062 6.015625 -5.40625 L 6.015625 -1.84375 C 6.015625 -1.25 5.851562 -0.789062 5.53125 -0.46875 C 5.21875 -0.15625 4.765625 0 4.171875 0 L 2.484375 0 C 1.890625 0 1.429688 -0.15625 1.109375 -0.46875 C 0.796875 -0.789062 0.640625 -1.25 0.640625 -1.84375 Z M 0.640625 -1.84375 "/></g></g></g><g fill="#004aad" fill-opacity="1"><g transform="translate(158.146946, 19.308771)"><g><path d="M 5.90625 -8.390625 L 5.90625 -5.265625 C 5.90625 -4.421875 5.59375 -3.859375 4.96875 -3.578125 L 5.84375 -0.234375 C 5.882812 -0.078125 5.828125 0 5.671875 0 L 4.34375 0 C 4.21875 0 4.144531 -0.0546875 4.125 -0.171875 L 3.265625 -3.421875 L 2.375 -3.421875 L 2.375 -0.203125 C 2.375 -0.0664062 2.304688 0 2.171875 0 L 0.84375 0 C 0.707031 0 0.640625 -0.0664062 0.640625 -0.203125 L 0.640625 -10.03125 C 0.640625 -10.164062 0.707031 -10.234375 0.84375 -10.234375 L 4.0625 -10.234375 C 4.664062 -10.234375 5.125 -10.078125 5.4375 -9.765625 C 5.75 -9.453125 5.90625 -8.992188 5.90625 -8.390625 Z M 2.375 -5.125 L 3.640625 -5.125 C 3.984375 -5.125 4.15625 -5.289062 4.15625 -5.625 L 4.15625 -8.03125 C 4.15625 -8.375 3.984375 -8.546875 3.640625 -8.546875 L 2.375 -8.546875 Z M 2.375 -5.125 "/></g></g></g><g fill="#004aad" fill-opacity="1"><g transform="translate(164.681075, 19.308771)"><g><path d="M 5.75 -10.03125 L 5.75 -8.75 C 5.75 -8.601562 5.679688 -8.53125 5.546875 -8.53125 L 2.34375 -8.53125 L 2.34375 -5.96875 L 4.78125 -5.96875 C 4.914062 -5.96875 4.984375 -5.898438 4.984375 -5.765625 L 4.984375 -4.484375 C 4.984375 -4.347656 4.914062 -4.28125 4.78125 -4.28125 L 2.34375 -4.28125 L 2.34375 -1.6875 L 5.546875 -1.6875 C 5.679688 -1.6875 5.75 -1.617188 5.75 -1.484375 L 5.75 -0.203125 C 5.75 -0.0664062 5.679688 0 5.546875 0 L 0.828125 0 C 0.703125 0 0.640625 -0.0664062 0.640625 -0.203125 L 0.640625 -10.03125 C 0.640625 -10.164062 0.703125 -10.234375 0.828125 -10.234375 L 5.546875 -10.234375 C 5.679688 -10.234375 5.75 -10.164062 5.75 -10.03125 Z M 5.75 -10.03125 "/></g></g></g><g fill="#004aad" fill-opacity="1"><g transform="translate(171.061758, 19.308771)"><g><path d="M 4.015625 -2.203125 L 4.015625 -10.03125 C 4.015625 -10.164062 4.082031 -10.234375 4.21875 -10.234375 L 5.546875 -10.234375 C 5.691406 -10.234375 5.765625 -10.164062 5.765625 -10.03125 L 5.765625 -1.84375 C 5.765625 -1.25 5.601562 -0.789062 5.28125 -0.46875 C 4.96875 -0.15625 4.515625 0 3.921875 0 L 2.484375 0 C 1.890625 0 1.429688 -0.15625 1.109375 -0.46875 C 0.796875 -0.789062 0.640625 -1.25 0.640625 -1.84375 L 0.640625 -3.171875 C 0.640625 -3.304688 0.707031 -3.375 0.84375 -3.375 L 2.125 -3.375 C 2.257812 -3.375 2.328125 -3.304688 2.328125 -3.171875 L 2.328125 -2.203125 C 2.328125 -1.859375 2.5 -1.6875 2.84375 -1.6875 L 3.5 -1.6875 C 3.84375 -1.6875 4.015625 -1.859375 4.015625 -2.203125 Z M 4.015625 -2.203125 "/></g></g></g><g fill="#004aad" fill-opacity="1"><g transform="translate(177.455233, 19.308771)"><g><path d="M 0.640625 -1.84375 L 0.640625 -8.390625 C 0.640625 -8.992188 0.796875 -9.453125 1.109375 -9.765625 C 1.429688 -10.078125 1.890625 -10.234375 2.484375 -10.234375 L 3.921875 -10.234375 C 4.523438 -10.234375 4.984375 -10.078125 5.296875 -9.765625 C 5.609375 -9.453125 5.765625 -8.992188 5.765625 -8.390625 L 5.765625 -1.84375 C 5.765625 -1.25 5.609375 -0.789062 5.296875 -0.46875 C 4.984375 -0.15625 4.523438 0 3.921875 0 L 2.484375 0 C 1.890625 0 1.429688 -0.15625 1.109375 -0.46875 C 0.796875 -0.789062 0.640625 -1.25 0.640625 -1.84375 Z M 2.859375 -1.65625 L 3.59375 -1.65625 C 3.9375 -1.65625 4.109375 -1.820312 4.109375 -2.15625 L 4.109375 -8.078125 C 4.109375 -8.421875 3.9375 -8.59375 3.59375 -8.59375 L 2.859375 -8.59375 C 2.515625 -8.59375 2.34375 -8.421875 2.34375 -8.078125 L 2.34375 -2.15625 C 2.34375 -1.820312 2.515625 -1.65625 2.859375 -1.65625 Z M 2.859375 -1.65625 "/></g></g></g><g fill="#f78e3c" fill-opacity="1"><g transform="translate(64.118758, 28.819452)"><g><path d="M 1.53125 -6.0625 C 1.9375 -6.09375 2.300781 -6.109375 2.625 -6.109375 C 3.40625 -6.109375 3.957031 -6.015625 4.28125 -5.828125 C 4.75 -5.554688 4.984375 -5.039062 4.984375 -4.28125 C 4.984375 -3.90625 4.914062 -3.578125 4.78125 -3.296875 C 4.613281 -2.929688 4.363281 -2.675781 4.03125 -2.53125 C 3.707031 -2.394531 3.203125 -2.328125 2.515625 -2.328125 L 1.828125 -2.328125 L 1.8125 -1.421875 C 1.800781 -0.921875 1.789062 -0.617188 1.78125 -0.515625 C 1.769531 -0.421875 1.738281 -0.332031 1.6875 -0.25 C 1.5625 -0.0195312 1.398438 0.09375 1.203125 0.09375 C 1.179688 0.09375 1.164062 0.09375 1.15625 0.09375 C 0.925781 0.0703125 0.753906 -0.0625 0.640625 -0.3125 L 0.53125 -0.546875 L 0.53125 -5.3125 L 0.421875 -5.5625 C 0.347656 -5.726562 0.304688 -5.832031 0.296875 -5.875 C 0.296875 -5.894531 0.304688 -5.910156 0.328125 -5.921875 C 0.359375 -5.929688 0.421875 -5.941406 0.515625 -5.953125 C 0.609375 -5.972656 0.726562 -5.988281 0.875 -6 C 1.03125 -6.019531 1.25 -6.039062 1.53125 -6.0625 Z M 2.984375 -4.9375 C 2.753906 -4.957031 2.625 -4.96875 2.59375 -4.96875 C 2.550781 -4.957031 2.429688 -4.953125 2.234375 -4.953125 C 2.003906 -4.941406 1.890625 -4.914062 1.890625 -4.875 C 1.867188 -4.851562 1.851562 -4.59375 1.84375 -4.09375 L 1.828125 -3.34375 L 2.0625 -3.34375 C 2.25 -3.34375 2.476562 -3.359375 2.75 -3.390625 C 3.03125 -3.429688 3.207031 -3.46875 3.28125 -3.5 C 3.425781 -3.5625 3.53125 -3.644531 3.59375 -3.75 C 3.664062 -3.863281 3.703125 -4.035156 3.703125 -4.265625 C 3.703125 -4.492188 3.648438 -4.65625 3.546875 -4.75 C 3.453125 -4.84375 3.265625 -4.90625 2.984375 -4.9375 Z M 2.984375 -4.9375 "/></g></g></g><g fill="#f78e3c" fill-opacity="1"><g transform="translate(69.193093, 28.819452)"><g><path d="M 1.953125 -4.4375 C 2.117188 -4.457031 2.28125 -4.46875 2.4375 -4.46875 C 2.550781 -4.46875 2.664062 -4.460938 2.78125 -4.453125 C 3.351562 -4.367188 3.753906 -4.097656 3.984375 -3.640625 C 4.148438 -3.328125 4.234375 -3.039062 4.234375 -2.78125 C 4.234375 -2.71875 4.21875 -2.597656 4.1875 -2.421875 C 4.164062 -2.242188 4.035156 -2.117188 3.796875 -2.046875 C 3.535156 -1.960938 2.992188 -1.921875 2.171875 -1.921875 L 1.484375 -1.921875 L 1.515625 -1.71875 C 1.546875 -1.582031 1.578125 -1.484375 1.609375 -1.421875 C 1.648438 -1.359375 1.710938 -1.289062 1.796875 -1.21875 C 1.972656 -1.050781 2.203125 -0.96875 2.484375 -0.96875 C 2.523438 -0.96875 2.570312 -0.972656 2.625 -0.984375 C 2.976562 -1.023438 3.300781 -1.164062 3.59375 -1.40625 L 3.875 -1.640625 L 3.953125 -1.515625 C 4.023438 -1.378906 4.0625 -1.242188 4.0625 -1.109375 C 4.0625 -1.078125 4.054688 -1.015625 4.046875 -0.921875 C 4.046875 -0.828125 3.988281 -0.71875 3.875 -0.59375 C 3.664062 -0.363281 3.40625 -0.210938 3.09375 -0.140625 C 2.78125 -0.0664062 2.515625 -0.03125 2.296875 -0.03125 C 2.128906 -0.03125 1.898438 -0.0546875 1.609375 -0.109375 C 1.328125 -0.160156 1.082031 -0.289062 0.875 -0.5 C 0.644531 -0.726562 0.488281 -0.992188 0.40625 -1.296875 C 0.332031 -1.609375 0.296875 -1.890625 0.296875 -2.140625 C 0.296875 -2.296875 0.304688 -2.457031 0.328125 -2.625 C 0.398438 -3.050781 0.535156 -3.40625 0.734375 -3.6875 C 1.023438 -4.09375 1.429688 -4.34375 1.953125 -4.4375 Z M 2.84375 -3.390625 C 2.757812 -3.453125 2.617188 -3.488281 2.421875 -3.5 C 2.390625 -3.5 2.359375 -3.5 2.328125 -3.5 C 2.210938 -3.5 2.113281 -3.484375 2.03125 -3.453125 C 1.957031 -3.429688 1.878906 -3.378906 1.796875 -3.296875 C 1.742188 -3.242188 1.679688 -3.148438 1.609375 -3.015625 C 1.546875 -2.878906 1.515625 -2.78125 1.515625 -2.71875 C 1.515625 -2.675781 1.515625 -2.648438 1.515625 -2.640625 C 1.523438 -2.640625 1.539062 -2.640625 1.5625 -2.640625 C 1.570312 -2.640625 1.59375 -2.644531 1.625 -2.65625 C 1.769531 -2.675781 2.171875 -2.71875 2.828125 -2.78125 C 2.960938 -2.789062 3.046875 -2.800781 3.078125 -2.8125 C 3.109375 -2.820312 3.125 -2.847656 3.125 -2.890625 C 3.125 -2.960938 3.09375 -3.050781 3.03125 -3.15625 C 2.976562 -3.257812 2.914062 -3.335938 2.84375 -3.390625 Z M 2.84375 -3.390625 "/></g></g></g><g fill="#f78e3c" fill-opacity="1"><g transform="translate(73.730618, 28.819452)"><g><path d="M 2.59375 -4.4375 C 2.707031 -4.46875 2.84375 -4.484375 3 -4.484375 C 3.039062 -4.484375 3.125 -4.476562 3.25 -4.46875 C 3.375 -4.46875 3.503906 -4.445312 3.640625 -4.40625 C 3.765625 -4.351562 3.90625 -4.253906 4.0625 -4.109375 C 4.226562 -3.941406 4.328125 -3.78125 4.359375 -3.625 C 4.398438 -3.46875 4.421875 -3.132812 4.421875 -2.625 C 4.429688 -1.820312 4.441406 -1.28125 4.453125 -1 C 4.460938 -0.84375 4.46875 -0.710938 4.46875 -0.609375 C 4.46875 -0.515625 4.460938 -0.441406 4.453125 -0.390625 C 4.441406 -0.347656 4.410156 -0.300781 4.359375 -0.25 C 4.210938 -0.0820312 4.007812 0.0078125 3.75 0.03125 C 3.726562 0.03125 3.703125 0.03125 3.671875 0.03125 C 3.441406 0.03125 3.269531 -0.078125 3.15625 -0.296875 C 3.113281 -0.378906 3.085938 -0.476562 3.078125 -0.59375 C 3.066406 -0.71875 3.054688 -1.066406 3.046875 -1.640625 C 3.046875 -2.273438 3.039062 -2.664062 3.03125 -2.8125 C 3.019531 -2.957031 3.003906 -3.054688 2.984375 -3.109375 C 2.929688 -3.191406 2.878906 -3.25 2.828125 -3.28125 C 2.773438 -3.3125 2.691406 -3.328125 2.578125 -3.328125 C 2.554688 -3.328125 2.503906 -3.320312 2.421875 -3.3125 C 2.335938 -3.3125 2.253906 -3.296875 2.171875 -3.265625 C 2.171875 -3.253906 2.164062 -3.25 2.15625 -3.25 C 2.03125 -3.1875 1.953125 -3.097656 1.921875 -2.984375 C 1.898438 -2.878906 1.882812 -2.492188 1.875 -1.828125 C 1.875 -1.765625 1.875 -1.71875 1.875 -1.6875 C 1.863281 -0.875 1.835938 -0.429688 1.796875 -0.359375 C 1.742188 -0.242188 1.660156 -0.144531 1.546875 -0.0625 C 1.441406 0.0078125 1.328125 0.046875 1.203125 0.046875 C 1.066406 0.046875 0.9375 -0.00390625 0.8125 -0.109375 C 0.6875 -0.210938 0.59375 -0.335938 0.53125 -0.484375 C 0.519531 -0.554688 0.515625 -0.8125 0.515625 -1.25 C 0.515625 -1.394531 0.515625 -1.5625 0.515625 -1.75 C 0.515625 -1.9375 0.515625 -2.109375 0.515625 -2.265625 C 0.515625 -3.171875 0.46875 -3.785156 0.375 -4.109375 L 0.296875 -4.34375 L 0.5 -4.390625 C 0.632812 -4.421875 0.78125 -4.4375 0.9375 -4.4375 C 0.96875 -4.4375 0.992188 -4.4375 1.015625 -4.4375 C 1.347656 -4.4375 1.597656 -4.359375 1.765625 -4.203125 L 1.859375 -4.109375 L 2.109375 -4.25 C 2.273438 -4.332031 2.4375 -4.394531 2.59375 -4.4375 Z M 2.59375 -4.4375 "/></g></g></g><g fill="#f78e3c" fill-opacity="1"><g transform="translate(78.501097, 28.819452)"><g><path d="M 1.6875 -4.3125 C 1.769531 -4.34375 1.921875 -4.359375 2.140625 -4.359375 C 2.171875 -4.359375 2.207031 -4.359375 2.25 -4.359375 C 2.425781 -4.359375 2.550781 -4.347656 2.625 -4.328125 C 2.707031 -4.316406 2.804688 -4.285156 2.921875 -4.234375 C 3.054688 -4.171875 3.128906 -4.132812 3.140625 -4.125 C 3.160156 -4.125 3.171875 -4.125 3.171875 -4.125 C 3.203125 -4.125 3.238281 -4.144531 3.28125 -4.1875 C 3.34375 -4.226562 3.414062 -4.25 3.5 -4.25 C 3.5625 -4.25 3.648438 -4.226562 3.765625 -4.1875 C 3.890625 -4.144531 4.03125 -4.039062 4.1875 -3.875 C 4.28125 -3.769531 4.332031 -3.703125 4.34375 -3.671875 C 4.363281 -3.640625 4.375 -3.601562 4.375 -3.5625 C 4.375 -3.550781 4.375 -3.539062 4.375 -3.53125 C 4.320312 -3.289062 4.296875 -3.171875 4.296875 -3.171875 C 4.273438 -3.023438 4.253906 -2.375 4.234375 -1.21875 C 4.210938 -0.238281 4.179688 0.347656 4.140625 0.546875 C 4.109375 0.742188 4.003906 0.941406 3.828125 1.140625 C 3.472656 1.523438 2.910156 1.71875 2.140625 1.71875 C 2.085938 1.71875 2.023438 1.71875 1.953125 1.71875 C 1.441406 1.6875 1.046875 1.578125 0.765625 1.390625 C 0.523438 1.222656 0.40625 1.054688 0.40625 0.890625 C 0.40625 0.878906 0.40625 0.863281 0.40625 0.84375 C 0.414062 0.757812 0.453125 0.640625 0.515625 0.484375 C 0.578125 0.335938 0.617188 0.257812 0.640625 0.25 C 0.640625 0.25 0.644531 0.25 0.65625 0.25 C 0.6875 0.25 0.78125 0.289062 0.9375 0.375 C 1.132812 0.488281 1.304688 0.566406 1.453125 0.609375 C 1.609375 0.648438 1.816406 0.671875 2.078125 0.671875 C 2.265625 0.671875 2.390625 0.664062 2.453125 0.65625 C 2.523438 0.644531 2.601562 0.617188 2.6875 0.578125 C 2.84375 0.484375 2.941406 0.367188 2.984375 0.234375 C 3.035156 0.0976562 3.0625 -0.0820312 3.0625 -0.3125 C 3.0625 -0.363281 3.0625 -0.421875 3.0625 -0.484375 L 3.0625 -0.765625 L 2.90625 -0.671875 C 2.707031 -0.535156 2.507812 -0.453125 2.3125 -0.421875 C 2.125 -0.398438 1.988281 -0.390625 1.90625 -0.390625 C 1.707031 -0.390625 1.53125 -0.421875 1.375 -0.484375 C 0.882812 -0.679688 0.554688 -1.050781 0.390625 -1.59375 C 0.335938 -1.75 0.304688 -1.90625 0.296875 -2.0625 C 0.296875 -2.226562 0.296875 -2.328125 0.296875 -2.359375 C 0.296875 -2.585938 0.316406 -2.773438 0.359375 -2.921875 C 0.429688 -3.242188 0.582031 -3.53125 0.8125 -3.78125 C 1.050781 -4.03125 1.34375 -4.207031 1.6875 -4.3125 Z M 2.953125 -3.265625 C 2.859375 -3.304688 2.753906 -3.328125 2.640625 -3.328125 C 2.535156 -3.335938 2.472656 -3.34375 2.453125 -3.34375 C 2.265625 -3.34375 2.140625 -3.320312 2.078125 -3.28125 C 1.867188 -3.175781 1.734375 -3.023438 1.671875 -2.828125 C 1.617188 -2.640625 1.59375 -2.492188 1.59375 -2.390625 C 1.59375 -2.234375 1.628906 -2.078125 1.703125 -1.921875 C 1.773438 -1.742188 1.867188 -1.617188 1.984375 -1.546875 C 2.109375 -1.484375 2.222656 -1.453125 2.328125 -1.453125 C 2.390625 -1.453125 2.453125 -1.460938 2.515625 -1.484375 C 2.628906 -1.515625 2.742188 -1.566406 2.859375 -1.640625 C 2.972656 -1.722656 3.039062 -1.796875 3.0625 -1.859375 C 3.0625 -1.890625 3.0625 -2.003906 3.0625 -2.203125 C 3.0625 -2.304688 3.0625 -2.429688 3.0625 -2.578125 L 3.0625 -3.203125 Z M 2.953125 -3.265625 "/></g></g></g><g fill="#f78e3c" fill-opacity="1"><g transform="translate(83.180423, 28.819452)"><g><path d="M 1.671875 -4.40625 C 1.847656 -4.445312 2.019531 -4.46875 2.1875 -4.46875 C 2.351562 -4.46875 2.453125 -4.46875 2.484375 -4.46875 C 2.710938 -4.46875 2.890625 -4.457031 3.015625 -4.4375 C 3.578125 -4.320312 3.929688 -4.023438 4.078125 -3.546875 C 4.117188 -3.410156 4.140625 -3.300781 4.140625 -3.21875 C 4.148438 -3.132812 4.15625 -3.046875 4.15625 -2.953125 C 4.15625 -2.773438 4.148438 -2.503906 4.140625 -2.140625 C 4.128906 -1.890625 4.125 -1.675781 4.125 -1.5 C 4.125 -1.238281 4.132812 -1.0625 4.15625 -0.96875 C 4.175781 -0.875 4.234375 -0.828125 4.328125 -0.828125 C 4.335938 -0.828125 4.347656 -0.828125 4.359375 -0.828125 C 4.441406 -0.828125 4.507812 -0.835938 4.5625 -0.859375 C 4.582031 -0.867188 4.597656 -0.875 4.609375 -0.875 C 4.609375 -0.875 4.609375 -0.867188 4.609375 -0.859375 C 4.609375 -0.835938 4.59375 -0.789062 4.5625 -0.71875 C 4.46875 -0.445312 4.332031 -0.269531 4.15625 -0.1875 C 4.019531 -0.101562 3.867188 -0.0625 3.703125 -0.0625 C 3.628906 -0.0625 3.507812 -0.078125 3.34375 -0.109375 C 3.175781 -0.148438 3.046875 -0.265625 2.953125 -0.453125 L 2.890625 -0.5625 L 2.71875 -0.421875 C 2.46875 -0.203125 2.140625 -0.0820312 1.734375 -0.0625 C 1.703125 -0.0625 1.664062 -0.0625 1.625 -0.0625 C 1.332031 -0.0625 1.09375 -0.101562 0.90625 -0.1875 C 0.71875 -0.28125 0.566406 -0.453125 0.453125 -0.703125 C 0.378906 -0.835938 0.332031 -0.9375 0.3125 -1 C 0.300781 -1.0625 0.296875 -1.203125 0.296875 -1.421875 C 0.296875 -1.617188 0.300781 -1.75 0.3125 -1.8125 C 0.320312 -1.875 0.359375 -1.945312 0.421875 -2.03125 C 0.566406 -2.300781 0.816406 -2.503906 1.171875 -2.640625 C 1.535156 -2.785156 1.898438 -2.859375 2.265625 -2.859375 C 2.335938 -2.859375 2.40625 -2.859375 2.46875 -2.859375 L 2.8125 -2.828125 L 2.8125 -3.0625 C 2.8125 -3.21875 2.78125 -3.320312 2.71875 -3.375 C 2.632812 -3.457031 2.503906 -3.5 2.328125 -3.5 C 2.265625 -3.5 2.140625 -3.484375 1.953125 -3.453125 C 1.773438 -3.421875 1.59375 -3.328125 1.40625 -3.171875 C 1.320312 -3.097656 1.242188 -3.0625 1.171875 -3.0625 C 1.148438 -3.0625 1.132812 -3.0625 1.125 -3.0625 C 0.957031 -3.09375 0.804688 -3.171875 0.671875 -3.296875 C 0.546875 -3.421875 0.484375 -3.53125 0.484375 -3.625 C 0.484375 -3.632812 0.488281 -3.648438 0.5 -3.671875 C 0.53125 -3.796875 0.664062 -3.929688 0.90625 -4.078125 C 1.144531 -4.222656 1.398438 -4.332031 1.671875 -4.40625 Z M 2.78125 -1.71875 L 2.796875 -2.078125 L 2.578125 -2.09375 C 2.535156 -2.09375 2.492188 -2.09375 2.453125 -2.09375 C 2.242188 -2.09375 2.050781 -2.0625 1.875 -2 C 1.707031 -1.945312 1.59375 -1.863281 1.53125 -1.75 C 1.5 -1.6875 1.476562 -1.625 1.46875 -1.5625 C 1.46875 -1.5 1.46875 -1.460938 1.46875 -1.453125 C 1.46875 -1.359375 1.488281 -1.269531 1.53125 -1.1875 C 1.59375 -1.070312 1.675781 -1.003906 1.78125 -0.984375 C 1.882812 -0.972656 1.957031 -0.96875 2 -0.96875 C 2.132812 -0.96875 2.269531 -0.992188 2.40625 -1.046875 C 2.5625 -1.128906 2.660156 -1.207031 2.703125 -1.28125 C 2.753906 -1.351562 2.78125 -1.5 2.78125 -1.71875 Z M 2.78125 -1.71875 "/></g></g></g><g fill="#f78e3c" fill-opacity="1"><g transform="translate(87.910383, 28.819452)"><g><path d="M 1.515625 -4.46875 C 1.648438 -4.5 1.859375 -4.515625 2.140625 -4.515625 C 2.421875 -4.515625 2.640625 -4.5 2.796875 -4.46875 C 2.953125 -4.425781 3.097656 -4.375 3.234375 -4.3125 C 3.367188 -4.25 3.457031 -4.1875 3.5 -4.125 C 3.53125 -4.0625 3.546875 -3.988281 3.546875 -3.90625 C 3.546875 -3.851562 3.53125 -3.769531 3.5 -3.65625 C 3.476562 -3.550781 3.410156 -3.445312 3.296875 -3.34375 L 3.203125 -3.25 L 3.046875 -3.34375 C 2.867188 -3.46875 2.691406 -3.546875 2.515625 -3.578125 C 2.347656 -3.617188 2.210938 -3.640625 2.109375 -3.640625 C 2.023438 -3.640625 1.953125 -3.628906 1.890625 -3.609375 C 1.734375 -3.566406 1.65625 -3.460938 1.65625 -3.296875 C 1.65625 -3.203125 1.695312 -3.125 1.78125 -3.0625 C 1.863281 -3 2.019531 -2.929688 2.25 -2.859375 C 2.71875 -2.703125 3.046875 -2.5625 3.234375 -2.4375 C 3.429688 -2.320312 3.578125 -2.175781 3.671875 -2 C 3.742188 -1.84375 3.78125 -1.65625 3.78125 -1.4375 C 3.78125 -1.238281 3.753906 -1.078125 3.703125 -0.953125 C 3.648438 -0.828125 3.554688 -0.6875 3.421875 -0.53125 C 3.148438 -0.226562 2.863281 -0.0625 2.5625 -0.03125 C 2.269531 0 2.070312 0.015625 1.96875 0.015625 C 1.59375 0.015625 1.226562 -0.0664062 0.875 -0.234375 C 0.488281 -0.421875 0.296875 -0.65625 0.296875 -0.9375 C 0.296875 -0.976562 0.300781 -1.019531 0.3125 -1.0625 C 0.332031 -1.164062 0.363281 -1.265625 0.40625 -1.359375 C 0.445312 -1.460938 0.476562 -1.515625 0.5 -1.515625 C 0.519531 -1.515625 0.640625 -1.445312 0.859375 -1.3125 C 1.140625 -1.132812 1.378906 -1.019531 1.578125 -0.96875 C 1.773438 -0.925781 1.925781 -0.90625 2.03125 -0.90625 C 2.144531 -0.90625 2.242188 -0.929688 2.328125 -0.984375 C 2.390625 -1.015625 2.429688 -1.050781 2.453125 -1.09375 C 2.472656 -1.132812 2.484375 -1.203125 2.484375 -1.296875 C 2.484375 -1.390625 2.4375 -1.46875 2.34375 -1.53125 C 2.25 -1.601562 2.066406 -1.691406 1.796875 -1.796875 C 1.335938 -1.953125 1.007812 -2.101562 0.8125 -2.25 C 0.59375 -2.414062 0.445312 -2.648438 0.375 -2.953125 C 0.34375 -3.046875 0.328125 -3.132812 0.328125 -3.21875 C 0.328125 -3.4375 0.421875 -3.671875 0.609375 -3.921875 C 0.796875 -4.171875 1.097656 -4.351562 1.515625 -4.46875 Z M 1.515625 -4.46875 "/></g></g></g><g fill="#f78e3c" fill-opacity="1"><g transform="translate(91.992126, 28.819452)"><g><path d="M 0.84375 -6.09375 C 0.945312 -6.125 1.046875 -6.140625 1.140625 -6.140625 C 1.273438 -6.140625 1.421875 -6.09375 1.578125 -6 C 1.742188 -5.90625 1.828125 -5.742188 1.828125 -5.515625 C 1.828125 -5.273438 1.707031 -5.09375 1.46875 -4.96875 C 1.34375 -4.90625 1.222656 -4.875 1.109375 -4.875 C 0.984375 -4.875 0.863281 -4.910156 0.75 -4.984375 C 0.507812 -5.140625 0.390625 -5.335938 0.390625 -5.578125 C 0.390625 -5.679688 0.394531 -5.75 0.40625 -5.78125 C 0.425781 -5.8125 0.46875 -5.859375 0.53125 -5.921875 C 0.644531 -6.015625 0.75 -6.070312 0.84375 -6.09375 Z M 0.46875 -4.4375 C 0.570312 -4.457031 0.75 -4.472656 1 -4.484375 C 1.207031 -4.484375 1.359375 -4.46875 1.453125 -4.4375 C 1.554688 -4.40625 1.644531 -4.34375 1.71875 -4.25 C 1.757812 -4.207031 1.78125 -4.164062 1.78125 -4.125 C 1.789062 -4.082031 1.796875 -4.050781 1.796875 -4.03125 C 1.796875 -3.945312 1.785156 -3.796875 1.765625 -3.578125 C 1.753906 -3.253906 1.738281 -2.570312 1.71875 -1.53125 C 1.707031 -0.96875 1.695312 -0.625 1.6875 -0.5 C 1.675781 -0.382812 1.648438 -0.300781 1.609375 -0.25 C 1.523438 -0.132812 1.429688 -0.0625 1.328125 -0.03125 C 1.222656 0 1.140625 0.015625 1.078125 0.015625 C 0.984375 0.015625 0.894531 -0.00390625 0.8125 -0.046875 C 0.726562 -0.0976562 0.648438 -0.179688 0.578125 -0.296875 L 0.46875 -0.484375 L 0.46875 -2 C 0.46875 -2.90625 0.460938 -3.453125 0.453125 -3.640625 C 0.453125 -3.828125 0.429688 -3.988281 0.390625 -4.125 L 0.296875 -4.40625 Z M 0.46875 -4.4375 "/></g></g></g><g fill="#f78e3c" fill-opacity="1"><g transform="translate(94.129215, 28.819452)"><g><path d="M 0.484375 -6.4375 C 0.585938 -6.46875 0.726562 -6.484375 0.90625 -6.484375 C 1.082031 -6.484375 1.21875 -6.46875 1.3125 -6.4375 C 1.40625 -6.414062 1.5 -6.363281 1.59375 -6.28125 C 1.695312 -6.1875 1.753906 -6.097656 1.765625 -6.015625 C 1.785156 -5.929688 1.796875 -5.835938 1.796875 -5.734375 C 1.796875 -5.617188 1.789062 -5.476562 1.78125 -5.3125 C 1.75 -4.9375 1.734375 -4.597656 1.734375 -4.296875 L 1.734375 -3.828125 L 1.90625 -3.984375 C 2.226562 -4.265625 2.585938 -4.40625 2.984375 -4.40625 C 2.992188 -4.40625 3.109375 -4.398438 3.328125 -4.390625 C 3.546875 -4.390625 3.769531 -4.234375 4 -3.921875 C 4.082031 -3.816406 4.140625 -3.738281 4.171875 -3.6875 C 4.203125 -3.644531 4.226562 -3.535156 4.25 -3.359375 C 4.269531 -3.191406 4.28125 -3.019531 4.28125 -2.84375 L 4.28125 -1.6875 C 4.28125 -0.957031 4.269531 -0.523438 4.25 -0.390625 C 4.226562 -0.265625 4.140625 -0.164062 3.984375 -0.09375 C 3.972656 -0.0820312 3.960938 -0.078125 3.953125 -0.078125 C 3.859375 -0.0234375 3.765625 0 3.671875 0 C 3.535156 0 3.40625 -0.0390625 3.28125 -0.125 C 3.207031 -0.175781 3.15625 -0.21875 3.125 -0.25 C 3.09375 -0.28125 3.0625 -0.351562 3.03125 -0.46875 C 3.007812 -0.582031 3 -0.707031 3 -0.84375 C 3 -0.976562 3 -1.210938 3 -1.546875 C 3 -2.117188 2.988281 -2.503906 2.96875 -2.703125 C 2.945312 -2.898438 2.898438 -3.039062 2.828125 -3.125 C 2.753906 -3.195312 2.679688 -3.234375 2.609375 -3.234375 C 2.535156 -3.234375 2.492188 -3.234375 2.484375 -3.234375 C 2.367188 -3.234375 2.242188 -3.207031 2.109375 -3.15625 C 2.097656 -3.144531 2.082031 -3.132812 2.0625 -3.125 C 1.90625 -3.039062 1.8125 -2.945312 1.78125 -2.84375 C 1.757812 -2.75 1.742188 -2.429688 1.734375 -1.890625 C 1.734375 -1.804688 1.734375 -1.738281 1.734375 -1.6875 C 1.722656 -1.164062 1.710938 -0.828125 1.703125 -0.671875 C 1.691406 -0.523438 1.675781 -0.421875 1.65625 -0.359375 C 1.570312 -0.234375 1.472656 -0.140625 1.359375 -0.078125 C 1.253906 -0.0234375 1.160156 0 1.078125 0 C 1.035156 0 1 -0.00390625 0.96875 -0.015625 C 0.90625 -0.0351562 0.832031 -0.078125 0.75 -0.140625 C 0.664062 -0.210938 0.59375 -0.296875 0.53125 -0.390625 L 0.453125 -0.53125 L 0.421875 -3.140625 C 0.410156 -4.890625 0.382812 -5.859375 0.34375 -6.046875 C 0.3125 -6.203125 0.296875 -6.300781 0.296875 -6.34375 C 0.296875 -6.363281 0.296875 -6.375 0.296875 -6.375 C 0.316406 -6.394531 0.378906 -6.414062 0.484375 -6.4375 Z M 0.484375 -6.4375 "/></g></g></g><g fill="#f78e3c" fill-opacity="1"><g transform="translate(98.717386, 28.819452)"><g><path d="M 1.21875 -1.40625 C 1.269531 -1.425781 1.359375 -1.4375 1.484375 -1.4375 C 1.503906 -1.4375 1.53125 -1.4375 1.5625 -1.4375 C 1.738281 -1.425781 1.867188 -1.394531 1.953125 -1.34375 C 2.097656 -1.226562 2.179688 -1.097656 2.203125 -0.953125 C 2.222656 -0.816406 2.234375 -0.71875 2.234375 -0.65625 C 2.234375 -0.488281 2.195312 -0.320312 2.125 -0.15625 C 2.0625 -0.0078125 1.941406 0.148438 1.765625 0.328125 C 1.597656 0.515625 1.453125 0.640625 1.328125 0.703125 C 1.265625 0.742188 1.191406 0.773438 1.109375 0.796875 C 1.023438 0.816406 0.96875 0.828125 0.9375 0.828125 C 0.90625 0.835938 0.882812 0.84375 0.875 0.84375 C 0.84375 0.84375 0.820312 0.832031 0.8125 0.8125 C 0.8125 0.800781 0.890625 0.707031 1.046875 0.53125 C 1.179688 0.394531 1.28125 0.265625 1.34375 0.140625 C 1.414062 0.015625 1.453125 -0.0625 1.453125 -0.09375 C 1.453125 -0.125 1.445312 -0.144531 1.4375 -0.15625 C 1.394531 -0.175781 1.34375 -0.1875 1.28125 -0.1875 C 1.21875 -0.1875 1.144531 -0.210938 1.0625 -0.265625 C 0.976562 -0.316406 0.914062 -0.378906 0.875 -0.453125 C 0.832031 -0.503906 0.8125 -0.597656 0.8125 -0.734375 C 0.8125 -0.878906 0.832031 -0.992188 0.875 -1.078125 C 0.957031 -1.234375 1.070312 -1.34375 1.21875 -1.40625 Z M 1.21875 -1.40625 "/></g></g></g><g fill="#f78e3c" fill-opacity="1"><g transform="translate(101.776167, 28.819452)"><g/></g></g><g fill="#f78e3c" fill-opacity="1"><g transform="translate(104.267757, 28.819452)"><g><path d="M 0.375 -6.0625 C 0.457031 -6.070312 0.609375 -6.078125 0.828125 -6.078125 C 0.859375 -6.078125 0.957031 -6.078125 1.125 -6.078125 C 1.289062 -6.078125 1.410156 -6.066406 1.484375 -6.046875 C 1.578125 -6.015625 1.65625 -5.960938 1.71875 -5.890625 C 1.789062 -5.816406 1.828125 -5.753906 1.828125 -5.703125 C 1.828125 -5.691406 1.820312 -5.671875 1.8125 -5.640625 C 1.800781 -5.609375 1.78125 -5.363281 1.75 -4.90625 C 1.726562 -4.457031 1.71875 -4.160156 1.71875 -4.015625 C 1.71875 -3.953125 1.71875 -3.910156 1.71875 -3.890625 C 1.726562 -3.859375 1.738281 -3.84375 1.75 -3.84375 C 1.769531 -3.84375 1.800781 -3.859375 1.84375 -3.890625 C 1.882812 -3.929688 2.046875 -4.109375 2.328125 -4.421875 C 2.890625 -5.023438 3.28125 -5.5 3.5 -5.84375 L 3.671875 -6.078125 L 3.890625 -6.0625 C 4.242188 -6.03125 4.488281 -5.960938 4.625 -5.859375 C 4.757812 -5.753906 4.828125 -5.648438 4.828125 -5.546875 C 4.828125 -5.503906 4.816406 -5.457031 4.796875 -5.40625 C 4.765625 -5.320312 4.425781 -4.953125 3.78125 -4.296875 C 3.144531 -3.648438 2.828125 -3.316406 2.828125 -3.296875 C 2.828125 -3.273438 2.925781 -3.140625 3.125 -2.890625 C 4.34375 -1.378906 4.96875 -0.539062 5 -0.375 C 5 -0.363281 5 -0.359375 5 -0.359375 C 5 -0.285156 4.921875 -0.21875 4.765625 -0.15625 C 4.609375 -0.09375 4.472656 -0.0546875 4.359375 -0.046875 C 4.242188 -0.046875 4.164062 -0.046875 4.125 -0.046875 C 3.988281 -0.046875 3.863281 -0.0625 3.75 -0.09375 C 3.65625 -0.125 3.539062 -0.222656 3.40625 -0.390625 C 3.269531 -0.566406 3.023438 -0.914062 2.671875 -1.4375 C 2.296875 -2 2.050781 -2.351562 1.9375 -2.5 C 1.832031 -2.644531 1.765625 -2.71875 1.734375 -2.71875 C 1.722656 -2.71875 1.71875 -2.585938 1.71875 -2.328125 C 1.71875 -2.203125 1.71875 -2.039062 1.71875 -1.84375 C 1.726562 -1.601562 1.734375 -1.398438 1.734375 -1.234375 C 1.734375 -0.972656 1.726562 -0.789062 1.71875 -0.6875 C 1.675781 -0.457031 1.601562 -0.289062 1.5 -0.1875 C 1.394531 -0.0820312 1.242188 -0.03125 1.046875 -0.03125 C 0.796875 -0.03125 0.609375 -0.140625 0.484375 -0.359375 C 0.484375 -0.359375 0.476562 -0.367188 0.46875 -0.390625 C 0.425781 -0.460938 0.398438 -0.570312 0.390625 -0.71875 C 0.390625 -0.863281 0.390625 -1.03125 0.390625 -1.21875 C 0.390625 -1.601562 0.394531 -2.210938 0.40625 -3.046875 L 0.40625 -4.296875 C 0.40625 -4.648438 0.398438 -4.941406 0.390625 -5.171875 C 0.390625 -5.410156 0.359375 -5.65625 0.296875 -5.90625 C 0.296875 -5.9375 0.296875 -5.960938 0.296875 -5.984375 C 0.296875 -5.992188 0.296875 -6.003906 0.296875 -6.015625 C 0.304688 -6.035156 0.332031 -6.050781 0.375 -6.0625 Z M 0.375 -6.0625 "/></g></g></g><g fill="#f78e3c" fill-opacity="1"><g transform="translate(109.433246, 28.819452)"><g><path d="M 0.546875 -4.390625 C 0.671875 -4.421875 0.8125 -4.4375 0.96875 -4.4375 C 0.988281 -4.4375 1.046875 -4.4375 1.140625 -4.4375 C 1.234375 -4.4375 1.328125 -4.421875 1.421875 -4.390625 C 1.585938 -4.304688 1.679688 -4.222656 1.703125 -4.140625 C 1.734375 -4.066406 1.75 -3.984375 1.75 -3.890625 C 1.75 -3.773438 1.738281 -3.640625 1.71875 -3.484375 C 1.6875 -3.191406 1.664062 -2.925781 1.65625 -2.6875 C 1.65625 -2.445312 1.65625 -2.296875 1.65625 -2.234375 C 1.65625 -1.929688 1.671875 -1.738281 1.703125 -1.65625 C 1.773438 -1.382812 1.929688 -1.25 2.171875 -1.25 C 2.242188 -1.25 2.332031 -1.265625 2.4375 -1.296875 C 2.75 -1.390625 2.929688 -1.5625 2.984375 -1.8125 C 2.992188 -1.957031 3 -2.410156 3 -3.171875 C 3 -3.253906 3 -3.363281 3 -3.5 C 3 -3.957031 3.015625 -4.222656 3.046875 -4.296875 C 3.078125 -4.378906 3.171875 -4.421875 3.328125 -4.421875 C 3.367188 -4.421875 3.40625 -4.425781 3.4375 -4.4375 C 3.488281 -4.4375 3.535156 -4.4375 3.578125 -4.4375 C 3.710938 -4.4375 3.832031 -4.421875 3.9375 -4.390625 C 4.039062 -4.359375 4.148438 -4.289062 4.265625 -4.1875 C 4.347656 -4.101562 4.394531 -4.046875 4.40625 -4.015625 C 4.414062 -3.992188 4.421875 -3.972656 4.421875 -3.953125 C 4.421875 -3.929688 4.421875 -3.898438 4.421875 -3.859375 C 4.347656 -3.484375 4.304688 -2.960938 4.296875 -2.296875 C 4.285156 -2.054688 4.28125 -1.847656 4.28125 -1.671875 C 4.28125 -1.359375 4.289062 -1.113281 4.3125 -0.9375 C 4.34375 -0.757812 4.359375 -0.640625 4.359375 -0.578125 C 4.359375 -0.566406 4.351562 -0.546875 4.34375 -0.515625 C 4.34375 -0.492188 4.328125 -0.460938 4.296875 -0.421875 C 4.160156 -0.242188 3.988281 -0.140625 3.78125 -0.109375 C 3.738281 -0.0976562 3.707031 -0.09375 3.6875 -0.09375 C 3.59375 -0.09375 3.492188 -0.117188 3.390625 -0.171875 C 3.285156 -0.234375 3.195312 -0.328125 3.125 -0.453125 L 3.03125 -0.640625 L 2.875 -0.5 C 2.625 -0.289062 2.394531 -0.164062 2.1875 -0.125 C 1.988281 -0.0820312 1.835938 -0.0625 1.734375 -0.0625 C 1.546875 -0.0625 1.359375 -0.09375 1.171875 -0.15625 C 1.035156 -0.195312 0.90625 -0.28125 0.78125 -0.40625 C 0.664062 -0.53125 0.582031 -0.664062 0.53125 -0.8125 C 0.457031 -0.988281 0.410156 -1.175781 0.390625 -1.375 C 0.367188 -1.582031 0.359375 -1.90625 0.359375 -2.34375 C 0.359375 -2.957031 0.347656 -3.410156 0.328125 -3.703125 C 0.316406 -3.890625 0.3125 -4.03125 0.3125 -4.125 C 0.3125 -4.226562 0.316406 -4.285156 0.328125 -4.296875 C 0.347656 -4.316406 0.421875 -4.347656 0.546875 -4.390625 Z M 0.546875 -4.390625 "/></g></g></g><g fill="#f78e3c" fill-opacity="1"><g transform="translate(114.163206, 28.819452)"><g><path d="M 0.3125 -6.078125 C 0.332031 -6.085938 0.382812 -6.097656 0.46875 -6.109375 C 0.550781 -6.128906 0.71875 -6.144531 0.96875 -6.15625 C 1.195312 -6.15625 1.359375 -6.132812 1.453125 -6.09375 C 1.554688 -6.0625 1.640625 -5.988281 1.703125 -5.875 C 1.734375 -5.800781 1.75 -5.738281 1.75 -5.6875 C 1.757812 -5.632812 1.765625 -5.597656 1.765625 -5.578125 C 1.765625 -5.460938 1.753906 -5.238281 1.734375 -4.90625 C 1.703125 -4.351562 1.6875 -3.484375 1.6875 -2.296875 C 1.6875 -1.523438 1.691406 -1.03125 1.703125 -0.8125 C 1.710938 -0.59375 1.722656 -0.472656 1.734375 -0.453125 C 1.773438 -0.421875 1.796875 -0.382812 1.796875 -0.34375 C 1.796875 -0.300781 1.769531 -0.253906 1.71875 -0.203125 C 1.59375 -0.0664062 1.460938 0.0078125 1.328125 0.03125 C 1.191406 0.0625 1.097656 0.078125 1.046875 0.078125 C 0.910156 0.078125 0.796875 0.046875 0.703125 -0.015625 C 0.628906 -0.0859375 0.566406 -0.164062 0.515625 -0.25 C 0.484375 -0.320312 0.460938 -0.484375 0.453125 -0.734375 C 0.441406 -0.984375 0.429688 -1.679688 0.421875 -2.828125 C 0.398438 -4.453125 0.375 -5.390625 0.34375 -5.640625 C 0.3125 -5.835938 0.296875 -5.96875 0.296875 -6.03125 C 0.296875 -6.050781 0.300781 -6.066406 0.3125 -6.078125 Z M 0.3125 -6.078125 "/></g></g></g><g fill="#f78e3c" fill-opacity="1"><g transform="translate(116.259787, 28.819452)"><g><path d="M 1.65625 -4.421875 C 1.832031 -4.453125 2.023438 -4.46875 2.234375 -4.46875 C 2.253906 -4.46875 2.269531 -4.46875 2.28125 -4.46875 C 2.863281 -4.46875 3.320312 -4.300781 3.65625 -3.96875 C 3.988281 -3.644531 4.171875 -3.160156 4.203125 -2.515625 C 4.203125 -2.460938 4.203125 -2.410156 4.203125 -2.359375 C 4.203125 -1.972656 4.140625 -1.613281 4.015625 -1.28125 C 3.921875 -1.039062 3.757812 -0.804688 3.53125 -0.578125 C 3.3125 -0.359375 3.082031 -0.207031 2.84375 -0.125 C 2.695312 -0.0703125 2.523438 -0.0390625 2.328125 -0.03125 C 2.128906 -0.0195312 1.984375 -0.015625 1.890625 -0.015625 C 1.722656 -0.015625 1.585938 -0.0234375 1.484375 -0.046875 C 1.003906 -0.148438 0.644531 -0.390625 0.40625 -0.765625 C 0.175781 -1.140625 0.0625 -1.59375 0.0625 -2.125 C 0.0625 -2.195312 0.0664062 -2.269531 0.078125 -2.34375 C 0.0976562 -2.84375 0.210938 -3.253906 0.421875 -3.578125 C 0.546875 -3.773438 0.71875 -3.953125 0.9375 -4.109375 C 1.164062 -4.265625 1.40625 -4.367188 1.65625 -4.421875 Z M 2.453125 -3.3125 C 2.347656 -3.351562 2.242188 -3.375 2.140625 -3.375 C 2.015625 -3.375 1.890625 -3.347656 1.765625 -3.296875 C 1.609375 -3.210938 1.492188 -3.085938 1.421875 -2.921875 C 1.347656 -2.765625 1.3125 -2.539062 1.3125 -2.25 C 1.3125 -1.988281 1.335938 -1.789062 1.390625 -1.65625 C 1.484375 -1.457031 1.59375 -1.316406 1.71875 -1.234375 C 1.84375 -1.160156 2.003906 -1.125 2.203125 -1.125 C 2.429688 -1.125 2.601562 -1.1875 2.71875 -1.3125 C 2.832031 -1.445312 2.910156 -1.664062 2.953125 -1.96875 C 2.960938 -2.0625 2.96875 -2.160156 2.96875 -2.265625 C 2.96875 -2.410156 2.945312 -2.570312 2.90625 -2.75 C 2.863281 -2.9375 2.789062 -3.082031 2.6875 -3.1875 C 2.644531 -3.226562 2.566406 -3.269531 2.453125 -3.3125 Z M 2.453125 -3.3125 "/></g></g></g><g fill="#f78e3c" fill-opacity="1"><g transform="translate(120.544103, 28.819452)"><g><path d="M 2.59375 -4.4375 C 2.707031 -4.46875 2.84375 -4.484375 3 -4.484375 C 3.039062 -4.484375 3.125 -4.476562 3.25 -4.46875 C 3.375 -4.46875 3.503906 -4.445312 3.640625 -4.40625 C 3.765625 -4.351562 3.90625 -4.253906 4.0625 -4.109375 C 4.226562 -3.941406 4.328125 -3.78125 4.359375 -3.625 C 4.398438 -3.46875 4.421875 -3.132812 4.421875 -2.625 C 4.429688 -1.820312 4.441406 -1.28125 4.453125 -1 C 4.460938 -0.84375 4.46875 -0.710938 4.46875 -0.609375 C 4.46875 -0.515625 4.460938 -0.441406 4.453125 -0.390625 C 4.441406 -0.347656 4.410156 -0.300781 4.359375 -0.25 C 4.210938 -0.0820312 4.007812 0.0078125 3.75 0.03125 C 3.726562 0.03125 3.703125 0.03125 3.671875 0.03125 C 3.441406 0.03125 3.269531 -0.078125 3.15625 -0.296875 C 3.113281 -0.378906 3.085938 -0.476562 3.078125 -0.59375 C 3.066406 -0.71875 3.054688 -1.066406 3.046875 -1.640625 C 3.046875 -2.273438 3.039062 -2.664062 3.03125 -2.8125 C 3.019531 -2.957031 3.003906 -3.054688 2.984375 -3.109375 C 2.929688 -3.191406 2.878906 -3.25 2.828125 -3.28125 C 2.773438 -3.3125 2.691406 -3.328125 2.578125 -3.328125 C 2.554688 -3.328125 2.503906 -3.320312 2.421875 -3.3125 C 2.335938 -3.3125 2.253906 -3.296875 2.171875 -3.265625 C 2.171875 -3.253906 2.164062 -3.25 2.15625 -3.25 C 2.03125 -3.1875 1.953125 -3.097656 1.921875 -2.984375 C 1.898438 -2.878906 1.882812 -2.492188 1.875 -1.828125 C 1.875 -1.765625 1.875 -1.71875 1.875 -1.6875 C 1.863281 -0.875 1.835938 -0.429688 1.796875 -0.359375 C 1.742188 -0.242188 1.660156 -0.144531 1.546875 -0.0625 C 1.441406 0.0078125 1.328125 0.046875 1.203125 0.046875 C 1.066406 0.046875 0.9375 -0.00390625 0.8125 -0.109375 C 0.6875 -0.210938 0.59375 -0.335938 0.53125 -0.484375 C 0.519531 -0.554688 0.515625 -0.8125 0.515625 -1.25 C 0.515625 -1.394531 0.515625 -1.5625 0.515625 -1.75 C 0.515625 -1.9375 0.515625 -2.109375 0.515625 -2.265625 C 0.515625 -3.171875 0.46875 -3.785156 0.375 -4.109375 L 0.296875 -4.34375 L 0.5 -4.390625 C 0.632812 -4.421875 0.78125 -4.4375 0.9375 -4.4375 C 0.96875 -4.4375 0.992188 -4.4375 1.015625 -4.4375 C 1.347656 -4.4375 1.597656 -4.359375 1.765625 -4.203125 L 1.859375 -4.109375 L 2.109375 -4.25 C 2.273438 -4.332031 2.4375 -4.394531 2.59375 -4.4375 Z M 2.59375 -4.4375 "/></g></g></g><g fill="#f78e3c" fill-opacity="1"><g transform="translate(125.314583, 28.819452)"><g/></g></g><g fill="#f78e3c" fill-opacity="1"><g transform="translate(127.806173, 28.819452)"><g><path d="M 1.53125 -6.0625 C 1.9375 -6.09375 2.300781 -6.109375 2.625 -6.109375 C 3.40625 -6.109375 3.957031 -6.015625 4.28125 -5.828125 C 4.75 -5.554688 4.984375 -5.039062 4.984375 -4.28125 C 4.984375 -3.90625 4.914062 -3.578125 4.78125 -3.296875 C 4.613281 -2.929688 4.363281 -2.675781 4.03125 -2.53125 C 3.707031 -2.394531 3.203125 -2.328125 2.515625 -2.328125 L 1.828125 -2.328125 L 1.8125 -1.421875 C 1.800781 -0.921875 1.789062 -0.617188 1.78125 -0.515625 C 1.769531 -0.421875 1.738281 -0.332031 1.6875 -0.25 C 1.5625 -0.0195312 1.398438 0.09375 1.203125 0.09375 C 1.179688 0.09375 1.164062 0.09375 1.15625 0.09375 C 0.925781 0.0703125 0.753906 -0.0625 0.640625 -0.3125 L 0.53125 -0.546875 L 0.53125 -5.3125 L 0.421875 -5.5625 C 0.347656 -5.726562 0.304688 -5.832031 0.296875 -5.875 C 0.296875 -5.894531 0.304688 -5.910156 0.328125 -5.921875 C 0.359375 -5.929688 0.421875 -5.941406 0.515625 -5.953125 C 0.609375 -5.972656 0.726562 -5.988281 0.875 -6 C 1.03125 -6.019531 1.25 -6.039062 1.53125 -6.0625 Z M 2.984375 -4.9375 C 2.753906 -4.957031 2.625 -4.96875 2.59375 -4.96875 C 2.550781 -4.957031 2.429688 -4.953125 2.234375 -4.953125 C 2.003906 -4.941406 1.890625 -4.914062 1.890625 -4.875 C 1.867188 -4.851562 1.851562 -4.59375 1.84375 -4.09375 L 1.828125 -3.34375 L 2.0625 -3.34375 C 2.25 -3.34375 2.476562 -3.359375 2.75 -3.390625 C 3.03125 -3.429688 3.207031 -3.46875 3.28125 -3.5 C 3.425781 -3.5625 3.53125 -3.644531 3.59375 -3.75 C 3.664062 -3.863281 3.703125 -4.035156 3.703125 -4.265625 C 3.703125 -4.492188 3.648438 -4.65625 3.546875 -4.75 C 3.453125 -4.84375 3.265625 -4.90625 2.984375 -4.9375 Z M 2.984375 -4.9375 "/></g></g></g><g fill="#f78e3c" fill-opacity="1"><g transform="translate(132.880508, 28.819452)"><g><path d="M 2.984375 -4.53125 C 3.046875 -4.539062 3.113281 -4.546875 3.1875 -4.546875 C 3.25 -4.546875 3.332031 -4.535156 3.4375 -4.515625 C 3.550781 -4.503906 3.644531 -4.476562 3.71875 -4.4375 C 3.820312 -4.382812 3.898438 -4.300781 3.953125 -4.1875 C 3.992188 -4.101562 4.015625 -4.050781 4.015625 -4.03125 C 4.023438 -4.007812 4.03125 -3.992188 4.03125 -3.984375 C 4.03125 -3.941406 4.019531 -3.890625 4 -3.828125 C 3.96875 -3.722656 3.921875 -3.625 3.859375 -3.53125 C 3.804688 -3.445312 3.75 -3.382812 3.6875 -3.34375 C 3.664062 -3.332031 3.628906 -3.328125 3.578125 -3.328125 C 3.515625 -3.328125 3.429688 -3.335938 3.328125 -3.359375 C 3.191406 -3.390625 3.054688 -3.40625 2.921875 -3.40625 C 2.523438 -3.40625 2.25 -3.28125 2.09375 -3.03125 C 1.988281 -2.875 1.921875 -2.710938 1.890625 -2.546875 C 1.859375 -2.390625 1.835938 -2.082031 1.828125 -1.625 C 1.796875 -0.90625 1.773438 -0.507812 1.765625 -0.4375 C 1.710938 -0.195312 1.601562 -0.0351562 1.4375 0.046875 C 1.332031 0.0976562 1.238281 0.125 1.15625 0.125 C 1 0.125 0.851562 0.0546875 0.71875 -0.078125 C 0.613281 -0.191406 0.546875 -0.335938 0.515625 -0.515625 C 0.492188 -0.691406 0.484375 -1.1875 0.484375 -2 C 0.484375 -3.15625 0.441406 -3.90625 0.359375 -4.25 L 0.296875 -4.4375 L 0.515625 -4.484375 C 0.609375 -4.503906 0.703125 -4.515625 0.796875 -4.515625 C 0.992188 -4.515625 1.179688 -4.46875 1.359375 -4.375 C 1.597656 -4.257812 1.734375 -4.070312 1.765625 -3.8125 L 1.78125 -3.609375 L 1.9375 -3.84375 C 2.050781 -4.007812 2.203125 -4.148438 2.390625 -4.265625 C 2.578125 -4.390625 2.773438 -4.476562 2.984375 -4.53125 Z M 2.984375 -4.53125 "/></g></g></g><g fill="#f78e3c" fill-opacity="1"><g transform="translate(136.952123, 28.819452)"><g><path d="M 1.65625 -4.421875 C 1.832031 -4.453125 2.023438 -4.46875 2.234375 -4.46875 C 2.253906 -4.46875 2.269531 -4.46875 2.28125 -4.46875 C 2.863281 -4.46875 3.320312 -4.300781 3.65625 -3.96875 C 3.988281 -3.644531 4.171875 -3.160156 4.203125 -2.515625 C 4.203125 -2.460938 4.203125 -2.410156 4.203125 -2.359375 C 4.203125 -1.972656 4.140625 -1.613281 4.015625 -1.28125 C 3.921875 -1.039062 3.757812 -0.804688 3.53125 -0.578125 C 3.3125 -0.359375 3.082031 -0.207031 2.84375 -0.125 C 2.695312 -0.0703125 2.523438 -0.0390625 2.328125 -0.03125 C 2.128906 -0.0195312 1.984375 -0.015625 1.890625 -0.015625 C 1.722656 -0.015625 1.585938 -0.0234375 1.484375 -0.046875 C 1.003906 -0.148438 0.644531 -0.390625 0.40625 -0.765625 C 0.175781 -1.140625 0.0625 -1.59375 0.0625 -2.125 C 0.0625 -2.195312 0.0664062 -2.269531 0.078125 -2.34375 C 0.0976562 -2.84375 0.210938 -3.253906 0.421875 -3.578125 C 0.546875 -3.773438 0.71875 -3.953125 0.9375 -4.109375 C 1.164062 -4.265625 1.40625 -4.367188 1.65625 -4.421875 Z M 2.453125 -3.3125 C 2.347656 -3.351562 2.242188 -3.375 2.140625 -3.375 C 2.015625 -3.375 1.890625 -3.347656 1.765625 -3.296875 C 1.609375 -3.210938 1.492188 -3.085938 1.421875 -2.921875 C 1.347656 -2.765625 1.3125 -2.539062 1.3125 -2.25 C 1.3125 -1.988281 1.335938 -1.789062 1.390625 -1.65625 C 1.484375 -1.457031 1.59375 -1.316406 1.71875 -1.234375 C 1.84375 -1.160156 2.003906 -1.125 2.203125 -1.125 C 2.429688 -1.125 2.601562 -1.1875 2.71875 -1.3125 C 2.832031 -1.445312 2.910156 -1.664062 2.953125 -1.96875 C 2.960938 -2.0625 2.96875 -2.160156 2.96875 -2.265625 C 2.96875 -2.410156 2.945312 -2.570312 2.90625 -2.75 C 2.863281 -2.9375 2.789062 -3.082031 2.6875 -3.1875 C 2.644531 -3.226562 2.566406 -3.269531 2.453125 -3.3125 Z M 2.453125 -3.3125 "/></g></g></g><g fill="#f78e3c" fill-opacity="1"><g transform="translate(141.236439, 28.819452)"><g><path d="M 1.6875 -4.3125 C 1.769531 -4.34375 1.921875 -4.359375 2.140625 -4.359375 C 2.171875 -4.359375 2.207031 -4.359375 2.25 -4.359375 C 2.425781 -4.359375 2.550781 -4.347656 2.625 -4.328125 C 2.707031 -4.316406 2.804688 -4.285156 2.921875 -4.234375 C 3.054688 -4.171875 3.128906 -4.132812 3.140625 -4.125 C 3.160156 -4.125 3.171875 -4.125 3.171875 -4.125 C 3.203125 -4.125 3.238281 -4.144531 3.28125 -4.1875 C 3.34375 -4.226562 3.414062 -4.25 3.5 -4.25 C 3.5625 -4.25 3.648438 -4.226562 3.765625 -4.1875 C 3.890625 -4.144531 4.03125 -4.039062 4.1875 -3.875 C 4.28125 -3.769531 4.332031 -3.703125 4.34375 -3.671875 C 4.363281 -3.640625 4.375 -3.601562 4.375 -3.5625 C 4.375 -3.550781 4.375 -3.539062 4.375 -3.53125 C 4.320312 -3.289062 4.296875 -3.171875 4.296875 -3.171875 C 4.273438 -3.023438 4.253906 -2.375 4.234375 -1.21875 C 4.210938 -0.238281 4.179688 0.347656 4.140625 0.546875 C 4.109375 0.742188 4.003906 0.941406 3.828125 1.140625 C 3.472656 1.523438 2.910156 1.71875 2.140625 1.71875 C 2.085938 1.71875 2.023438 1.71875 1.953125 1.71875 C 1.441406 1.6875 1.046875 1.578125 0.765625 1.390625 C 0.523438 1.222656 0.40625 1.054688 0.40625 0.890625 C 0.40625 0.878906 0.40625 0.863281 0.40625 0.84375 C 0.414062 0.757812 0.453125 0.640625 0.515625 0.484375 C 0.578125 0.335938 0.617188 0.257812 0.640625 0.25 C 0.640625 0.25 0.644531 0.25 0.65625 0.25 C 0.6875 0.25 0.78125 0.289062 0.9375 0.375 C 1.132812 0.488281 1.304688 0.566406 1.453125 0.609375 C 1.609375 0.648438 1.816406 0.671875 2.078125 0.671875 C 2.265625 0.671875 2.390625 0.664062 2.453125 0.65625 C 2.523438 0.644531 2.601562 0.617188 2.6875 0.578125 C 2.84375 0.484375 2.941406 0.367188 2.984375 0.234375 C 3.035156 0.0976562 3.0625 -0.0820312 3.0625 -0.3125 C 3.0625 -0.363281 3.0625 -0.421875 3.0625 -0.484375 L 3.0625 -0.765625 L 2.90625 -0.671875 C 2.707031 -0.535156 2.507812 -0.453125 2.3125 -0.421875 C 2.125 -0.398438 1.988281 -0.390625 1.90625 -0.390625 C 1.707031 -0.390625 1.53125 -0.421875 1.375 -0.484375 C 0.882812 -0.679688 0.554688 -1.050781 0.390625 -1.59375 C 0.335938 -1.75 0.304688 -1.90625 0.296875 -2.0625 C 0.296875 -2.226562 0.296875 -2.328125 0.296875 -2.359375 C 0.296875 -2.585938 0.316406 -2.773438 0.359375 -2.921875 C 0.429688 -3.242188 0.582031 -3.53125 0.8125 -3.78125 C 1.050781 -4.03125 1.34375 -4.207031 1.6875 -4.3125 Z M 2.953125 -3.265625 C 2.859375 -3.304688 2.753906 -3.328125 2.640625 -3.328125 C 2.535156 -3.335938 2.472656 -3.34375 2.453125 -3.34375 C 2.265625 -3.34375 2.140625 -3.320312 2.078125 -3.28125 C 1.867188 -3.175781 1.734375 -3.023438 1.671875 -2.828125 C 1.617188 -2.640625 1.59375 -2.492188 1.59375 -2.390625 C 1.59375 -2.234375 1.628906 -2.078125 1.703125 -1.921875 C 1.773438 -1.742188 1.867188 -1.617188 1.984375 -1.546875 C 2.109375 -1.484375 2.222656 -1.453125 2.328125 -1.453125 C 2.390625 -1.453125 2.453125 -1.460938 2.515625 -1.484375 C 2.628906 -1.515625 2.742188 -1.566406 2.859375 -1.640625 C 2.972656 -1.722656 3.039062 -1.796875 3.0625 -1.859375 C 3.0625 -1.890625 3.0625 -2.003906 3.0625 -2.203125 C 3.0625 -2.304688 3.0625 -2.429688 3.0625 -2.578125 L 3.0625 -3.203125 Z M 2.953125 -3.265625 "/></g></g></g><g fill="#f78e3c" fill-opacity="1"><g transform="translate(145.915765, 28.819452)"><g><path d="M 1.65625 -4.421875 C 1.832031 -4.453125 2.023438 -4.46875 2.234375 -4.46875 C 2.253906 -4.46875 2.269531 -4.46875 2.28125 -4.46875 C 2.863281 -4.46875 3.320312 -4.300781 3.65625 -3.96875 C 3.988281 -3.644531 4.171875 -3.160156 4.203125 -2.515625 C 4.203125 -2.460938 4.203125 -2.410156 4.203125 -2.359375 C 4.203125 -1.972656 4.140625 -1.613281 4.015625 -1.28125 C 3.921875 -1.039062 3.757812 -0.804688 3.53125 -0.578125 C 3.3125 -0.359375 3.082031 -0.207031 2.84375 -0.125 C 2.695312 -0.0703125 2.523438 -0.0390625 2.328125 -0.03125 C 2.128906 -0.0195312 1.984375 -0.015625 1.890625 -0.015625 C 1.722656 -0.015625 1.585938 -0.0234375 1.484375 -0.046875 C 1.003906 -0.148438 0.644531 -0.390625 0.40625 -0.765625 C 0.175781 -1.140625 0.0625 -1.59375 0.0625 -2.125 C 0.0625 -2.195312 0.0664062 -2.269531 0.078125 -2.34375 C 0.0976562 -2.84375 0.210938 -3.253906 0.421875 -3.578125 C 0.546875 -3.773438 0.71875 -3.953125 0.9375 -4.109375 C 1.164062 -4.265625 1.40625 -4.367188 1.65625 -4.421875 Z M 2.453125 -3.3125 C 2.347656 -3.351562 2.242188 -3.375 2.140625 -3.375 C 2.015625 -3.375 1.890625 -3.347656 1.765625 -3.296875 C 1.609375 -3.210938 1.492188 -3.085938 1.421875 -2.921875 C 1.347656 -2.765625 1.3125 -2.539062 1.3125 -2.25 C 1.3125 -1.988281 1.335938 -1.789062 1.390625 -1.65625 C 1.484375 -1.457031 1.59375 -1.316406 1.71875 -1.234375 C 1.84375 -1.160156 2.003906 -1.125 2.203125 -1.125 C 2.429688 -1.125 2.601562 -1.1875 2.71875 -1.3125 C 2.832031 -1.445312 2.910156 -1.664062 2.953125 -1.96875 C 2.960938 -2.0625 2.96875 -2.160156 2.96875 -2.265625 C 2.96875 -2.410156 2.945312 -2.570312 2.90625 -2.75 C 2.863281 -2.9375 2.789062 -3.082031 2.6875 -3.1875 C 2.644531 -3.226562 2.566406 -3.269531 2.453125 -3.3125 Z M 2.453125 -3.3125 "/></g></g></g><path fill="#eb6a18" d="M 32.742188 16.546875 L 32.742188 6.953125 L 23.679688 4.449219 L 23.679688 16.546875 L 32.742188 16.546875 " fill-opacity="1" fill-rule="nonzero"/><g clip-path="url(#f6c03afd47)"><path fill="#1d333b" d="M 22.984375 1.390625 L 10.492188 4.835938 L 10.492188 20.375 C 10.492188 22.886719 11.214844 25.222656 12.453125 27.191406 C 12.898438 27.035156 13.347656 26.882812 13.796875 26.746094 C 12.539062 24.882812 11.859375 22.683594 11.859375 20.375 L 11.859375 5.894531 L 22.984375 2.824219 L 34.109375 5.894531 L 34.109375 20.375 C 34.109375 22.679688 33.429688 24.878906 32.171875 26.738281 C 32.625 26.878906 33.074219 27.027344 33.519531 27.183594 C 34.757812 25.21875 35.472656 22.882812 35.472656 20.375 L 35.472656 4.835938 L 22.984375 1.390625 " fill-opacity="1" fill-rule="nonzero"/></g><path fill="#1d333b" d="M 22.996094 31.113281 C 21.101562 31.113281 19.242188 31.316406 17.421875 31.722656 C 19.097656 32.570312 20.984375 33.042969 22.984375 33.042969 C 24.984375 33.042969 26.875 32.566406 28.550781 31.71875 C 26.738281 31.316406 24.882812 31.113281 22.996094 31.113281 " fill-opacity="1" fill-rule="nonzero"/><path fill="#eb6a18" d="M 39.019531 20.367188 C 39.019531 20.367188 38.238281 20.644531 37.726562 21.230469 C 37.738281 20.949219 37.75 20.664062 37.75 20.375 L 37.75 20.101562 C 39.054688 19.660156 38.972656 17.722656 38.972656 17.722656 C 38.972656 17.722656 38.222656 18.046875 37.75 18.660156 L 37.75 17.558594 C 39.054688 17.117188 38.972656 15.183594 38.972656 15.183594 C 38.972656 15.183594 38.222656 15.507812 37.75 16.117188 L 37.75 15.019531 C 39.054688 14.574219 38.972656 12.640625 38.972656 12.640625 C 38.972656 12.640625 38.222656 12.964844 37.75 13.574219 L 37.75 12.476562 C 39.054688 12.03125 38.972656 10.097656 38.972656 10.097656 C 38.972656 10.097656 38.222656 10.421875 37.75 11.035156 L 37.75 9.933594 C 39.054688 9.492188 38.972656 7.554688 38.972656 7.554688 C 38.972656 7.554688 38.222656 7.878906 37.75 8.492188 L 37.75 7.394531 C 39.054688 6.949219 38.972656 5.015625 38.972656 5.015625 C 38.972656 5.015625 38.222656 5.339844 37.75 5.949219 L 37.75 5.5 C 38.976562 4.523438 37.519531 2.824219 37.519531 2.824219 C 37.519531 2.824219 36.0625 4.523438 37.292969 5.5 L 37.292969 5.949219 C 36.820312 5.339844 36.070312 5.015625 36.070312 5.015625 C 36.070312 5.015625 35.988281 6.949219 37.292969 7.394531 L 37.292969 8.492188 C 36.820312 7.878906 36.070312 7.554688 36.070312 7.554688 C 36.070312 7.554688 35.988281 9.492188 37.292969 9.933594 L 37.292969 11.035156 C 36.820312 10.421875 36.070312 10.097656 36.070312 10.097656 C 36.070312 10.097656 35.988281 12.03125 37.292969 12.476562 L 37.292969 13.574219 C 36.820312 12.964844 36.070312 12.640625 36.070312 12.640625 C 36.070312 12.640625 35.988281 14.574219 37.292969 15.019531 L 37.292969 16.117188 C 36.820312 15.507812 36.070312 15.183594 36.070312 15.183594 C 36.070312 15.183594 35.988281 17.117188 37.292969 17.558594 L 37.292969 18.660156 C 36.820312 18.046875 36.070312 17.722656 36.070312 17.722656 C 36.070312 17.722656 35.988281 19.660156 37.292969 20.101562 L 37.292969 20.375 C 37.292969 20.640625 37.285156 20.90625 37.273438 21.171875 C 36.839844 20.539062 36.125 20.167969 36.125 20.167969 C 36.125 20.167969 35.921875 22.03125 37.125 22.601562 C 36.949219 23.777344 36.628906 24.921875 36.167969 26.027344 C 35.902344 26.660156 35.59375 27.273438 35.246094 27.859375 C 35.386719 27.921875 35.527344 27.980469 35.667969 28.042969 C 36.015625 27.457031 36.320312 26.84375 36.585938 26.207031 C 37.0625 25.066406 37.390625 23.886719 37.574219 22.671875 C 38.972656 22.367188 39.019531 20.367188 39.019531 20.367188 " fill-opacity="1" fill-rule="nonzero"/><path fill="#eb6a18" d="M 8.832031 22.546875 C 9.882812 22.011719 9.921875 20.367188 9.921875 20.367188 C 9.921875 20.367188 9.207031 20.621094 8.695312 21.15625 C 8.679688 20.898438 8.675781 20.636719 8.675781 20.375 L 8.675781 20.09375 C 9.953125 19.636719 9.875 17.722656 9.875 17.722656 C 9.875 17.722656 9.148438 18.039062 8.675781 18.628906 L 8.675781 17.550781 C 9.953125 17.09375 9.875 15.183594 9.875 15.183594 C 9.875 15.183594 9.148438 15.496094 8.675781 16.089844 L 8.675781 15.011719 C 9.953125 14.550781 9.875 12.640625 9.875 12.640625 C 9.875 12.640625 9.148438 12.953125 8.675781 13.546875 L 8.675781 12.46875 C 9.953125 12.007812 9.875 10.097656 9.875 10.097656 C 9.875 10.097656 9.148438 10.410156 8.675781 11.003906 L 8.675781 9.925781 C 9.953125 9.46875 9.875 7.554688 9.875 7.554688 C 9.875 7.554688 9.148438 7.871094 8.675781 8.460938 L 8.675781 7.382812 C 9.953125 6.925781 9.875 5.015625 9.875 5.015625 C 9.875 5.015625 9.148438 5.328125 8.675781 5.921875 L 8.675781 5.480469 C 9.859375 4.503906 8.421875 2.824219 8.421875 2.824219 C 8.421875 2.824219 6.949219 4.546875 8.21875 5.519531 L 8.21875 5.980469 C 7.746094 5.347656 6.972656 5.015625 6.972656 5.015625 C 6.972656 5.015625 6.890625 6.972656 8.21875 7.402344 L 8.21875 8.523438 C 7.746094 7.890625 6.972656 7.554688 6.972656 7.554688 C 6.972656 7.554688 6.890625 9.515625 8.21875 9.941406 L 8.21875 11.066406 C 7.746094 10.433594 6.972656 10.097656 6.972656 10.097656 C 6.972656 10.097656 6.890625 12.054688 8.21875 12.484375 L 8.21875 13.605469 C 7.746094 12.976562 6.972656 12.640625 6.972656 12.640625 C 6.972656 12.640625 6.890625 14.597656 8.21875 15.027344 L 8.21875 16.148438 C 7.746094 15.515625 6.972656 15.183594 6.972656 15.183594 C 6.972656 15.183594 6.890625 17.140625 8.21875 17.570312 L 8.21875 18.691406 C 7.746094 18.058594 6.972656 17.722656 6.972656 17.722656 C 6.972656 17.722656 6.890625 19.683594 8.21875 20.109375 L 8.21875 20.375 C 8.21875 20.679688 8.226562 20.980469 8.246094 21.28125 C 7.824219 20.582031 7.027344 20.167969 7.027344 20.167969 C 7.027344 20.167969 6.800781 22.234375 8.234375 22.679688 C 8.234375 22.6875 8.238281 22.699219 8.238281 22.707031 C 8.265625 22.707031 8.289062 22.703125 8.3125 22.699219 C 8.335938 22.707031 8.359375 22.710938 8.382812 22.71875 C 8.386719 22.707031 8.390625 22.699219 8.394531 22.691406 C 8.578125 23.894531 8.90625 25.070312 9.378906 26.207031 C 9.648438 26.84375 9.957031 27.460938 10.304688 28.050781 C 10.445312 27.988281 10.585938 27.929688 10.726562 27.867188 C 10.375 27.28125 10.066406 26.664062 9.800781 26.027344 C 9.332031 24.90625 9.007812 23.742188 8.832031 22.546875 " fill-opacity="1" fill-rule="nonzero"/><path fill="#eb6a18" d="M 28.554688 33.75 C 26.789062 34.507812 24.914062 34.890625 22.984375 34.890625 C 21.050781 34.890625 19.179688 34.507812 17.414062 33.75 C 16.550781 33.378906 15.730469 32.925781 14.964844 32.398438 C 14.785156 32.457031 14.605469 32.519531 14.425781 32.582031 C 15.300781 33.214844 16.238281 33.746094 17.234375 34.171875 C 19.058594 34.957031 20.992188 35.351562 22.984375 35.351562 C 24.976562 35.351562 26.910156 34.957031 28.730469 34.171875 C 29.730469 33.746094 30.671875 33.210938 31.546875 32.578125 C 31.371094 32.515625 31.191406 32.453125 31.011719 32.394531 C 30.242188 32.925781 29.421875 33.378906 28.554688 33.75 " fill-opacity="1" fill-rule="nonzero"/><path fill="#1d333b" d="M 33.847656 32.671875 C 26.945312 29.570312 19.046875 29.570312 12.144531 32.671875 C 11.574219 31.394531 11.007812 30.113281 10.441406 28.832031 C 18.417969 25.234375 27.574219 25.234375 35.550781 28.832031 C 34.984375 30.113281 34.414062 31.394531 33.847656 32.671875 " fill-opacity="1" fill-rule="nonzero"/><g clip-path="url(#2f2481cedb)"><path fill="#1d333b" d="M 40.179688 36.746094 C 38.65625 35.441406 37.015625 34.3125 35.253906 33.367188 C 35.894531 32.121094 36.535156 30.875 37.175781 29.632812 C 39.214844 30.726562 41.117188 32.03125 42.878906 33.542969 C 41.578125 33.320312 40.269531 33.1875 38.949219 33.152344 C 39.4375 34.324219 39.847656 35.523438 40.179688 36.746094 " fill-opacity="1" fill-rule="nonzero"/></g><g clip-path="url(#4a85ae0c21)"><path fill="#1d333b" d="M 5.808594 36.746094 C 7.332031 35.441406 8.976562 34.3125 10.738281 33.367188 C 10.097656 32.121094 9.457031 30.875 8.816406 29.632812 C 6.777344 30.726562 4.875 32.03125 3.113281 33.542969 C 4.414062 33.320312 5.722656 33.1875 7.042969 33.152344 C 6.554688 34.324219 6.144531 35.523438 5.808594 36.746094 " fill-opacity="1" fill-rule="nonzero"/></g><path fill="#ffffff" d="M 30.121094 13.304688 C 29.882812 13.15625 29.628906 13.039062 29.367188 12.953125 C 29.539062 12.539062 29.632812 12.101562 29.652344 11.660156 L 30.8125 11.660156 C 30.777344 12.292969 30.519531 12.867188 30.121094 13.304688 Z M 26.300781 9.714844 C 26.539062 9.863281 26.792969 9.980469 27.050781 10.070312 C 26.882812 10.484375 26.789062 10.921875 26.769531 11.363281 L 25.609375 11.363281 C 25.644531 10.726562 25.902344 10.152344 26.300781 9.714844 Z M 28.355469 11.363281 L 28.355469 10.253906 C 28.601562 10.246094 28.847656 10.210938 29.085938 10.152344 C 29.25 10.539062 29.339844 10.949219 29.359375 11.363281 Z M 28.355469 12.765625 L 28.355469 11.660156 L 29.359375 11.660156 C 29.339844 12.074219 29.25 12.484375 29.085938 12.867188 C 28.847656 12.808594 28.601562 12.777344 28.355469 12.765625 Z M 29.246094 13.222656 C 29.472656 13.296875 29.691406 13.394531 29.902344 13.519531 C 29.539062 13.835938 29.089844 14.050781 28.59375 14.125 C 28.863281 13.851562 29.078125 13.546875 29.246094 13.222656 Z M 28.355469 13.945312 L 28.355469 13.0625 C 28.558594 13.070312 28.757812 13.097656 28.953125 13.144531 C 28.800781 13.433594 28.601562 13.703125 28.355469 13.945312 Z M 27.175781 13.222656 C 27.34375 13.546875 27.558594 13.851562 27.828125 14.125 C 27.332031 14.050781 26.882812 13.835938 26.519531 13.519531 C 26.730469 13.394531 26.949219 13.296875 27.175781 13.222656 Z M 28.066406 13.945312 C 27.820312 13.703125 27.621094 13.433594 27.46875 13.144531 C 27.664062 13.097656 27.863281 13.070312 28.066406 13.0625 Z M 28.066406 11.660156 L 28.066406 12.765625 C 27.820312 12.773438 27.574219 12.808594 27.335938 12.867188 C 27.171875 12.484375 27.082031 12.074219 27.0625 11.660156 Z M 28.066406 10.253906 L 28.066406 11.363281 L 27.0625 11.363281 C 27.082031 10.949219 27.171875 10.539062 27.335938 10.152344 C 27.574219 10.210938 27.820312 10.246094 28.066406 10.253906 Z M 27.175781 9.796875 C 26.949219 9.726562 26.730469 9.625 26.519531 9.503906 C 26.882812 9.1875 27.332031 8.972656 27.828125 8.898438 C 27.558594 9.167969 27.34375 9.472656 27.175781 9.796875 Z M 28.066406 9.078125 L 28.066406 9.957031 C 27.863281 9.949219 27.664062 9.921875 27.46875 9.878906 C 27.621094 9.589844 27.820312 9.320312 28.066406 9.078125 Z M 28.59375 8.898438 C 29.089844 8.972656 29.539062 9.1875 29.902344 9.503906 C 29.691406 9.625 29.472656 9.726562 29.246094 9.796875 C 29.078125 9.472656 28.863281 9.167969 28.59375 8.898438 Z M 28.355469 9.078125 C 28.601562 9.320312 28.800781 9.589844 28.953125 9.878906 C 28.757812 9.921875 28.558594 9.949219 28.355469 9.957031 Z M 26.769531 11.660156 C 26.789062 12.101562 26.882812 12.539062 27.050781 12.953125 C 26.792969 13.039062 26.539062 13.15625 26.300781 13.304688 C 25.902344 12.867188 25.644531 12.292969 25.609375 11.660156 Z M 30.8125 11.363281 L 29.652344 11.363281 C 29.632812 10.921875 29.539062 10.484375 29.367188 10.070312 C 29.628906 9.980469 29.882812 9.863281 30.121094 9.714844 C 30.519531 10.152344 30.777344 10.726562 30.8125 11.363281 Z M 28.210938 8.59375 C 26.621094 8.59375 25.335938 9.898438 25.335938 11.511719 C 25.335938 13.121094 26.621094 14.429688 28.210938 14.429688 C 29.800781 14.429688 31.085938 13.121094 31.085938 11.511719 C 31.085938 9.898438 29.800781 8.59375 28.210938 8.59375 " fill-opacity="1" fill-rule="nonzero"/><path fill="#eb6a18" d="M 13.222656 17.929688 L 13.222656 20.375 C 13.222656 22.5625 13.917969 24.640625 15.199219 26.351562 C 15.613281 26.242188 16.03125 26.144531 16.449219 26.054688 C 18.375 25.644531 20.34375 25.417969 22.3125 25.375 L 22.3125 17.929688 L 13.222656 17.929688 " fill-opacity="1" fill-rule="nonzero"/><path fill="#3a95b5" d="M 23.679688 17.929688 L 23.679688 25.375 C 25.648438 25.417969 27.617188 25.644531 29.539062 26.054688 C 29.953125 26.144531 30.363281 26.242188 30.769531 26.34375 C 32.050781 24.636719 32.742188 22.558594 32.742188 20.375 L 32.742188 17.929688 L 23.679688 17.929688 " fill-opacity="1" fill-rule="nonzero"/><path fill="#3a95b5" d="M 22.3125 16.546875 L 22.3125 4.445312 L 13.222656 6.953125 L 13.222656 16.546875 L 22.3125 16.546875 " fill-opacity="1" fill-rule="nonzero"/><path fill="#ffffff" d="M 14.53125 9.671875 L 14.53125 13.40625 L 14.6875 13.386719 C 14.8125 13.375 14.933594 13.367188 15.058594 13.367188 C 15.859375 13.367188 16.542969 13.65625 16.972656 13.898438 C 17.441406 14.160156 17.71875 14.417969 17.722656 14.421875 L 17.726562 14.429688 C 17.332031 14.210938 15.730469 13.414062 14.128906 13.832031 L 14.128906 9.695312 C 14.261719 9.679688 14.394531 9.671875 14.53125 9.671875 " fill-opacity="1" fill-rule="nonzero"/><path fill="#ffffff" d="M 17.449219 13.722656 C 16.929688 13.386719 16.085938 12.972656 15.058594 12.972656 C 15.011719 12.972656 14.964844 12.972656 14.917969 12.976562 L 14.917969 9.453125 C 14.964844 9.453125 15.011719 9.449219 15.058594 9.449219 C 15.582031 9.449219 16.113281 9.574219 16.632812 9.816406 C 16.996094 9.984375 17.277344 10.175781 17.449219 10.308594 Z M 14.671875 9.222656 L 14.671875 13.242188 C 16.15625 13.082031 17.320312 13.90625 17.695312 14.207031 L 17.695312 10.1875 C 17.320312 9.882812 16.15625 9.058594 14.671875 9.222656 " fill-opacity="1" fill-rule="nonzero"/><path fill="#ffffff" d="M 21 9.671875 L 21 13.40625 L 20.839844 13.386719 C 20.71875 13.375 20.59375 13.367188 20.472656 13.367188 C 19.671875 13.367188 18.988281 13.65625 18.558594 13.898438 C 18.089844 14.160156 17.8125 14.417969 17.808594 14.421875 L 17.804688 14.429688 C 18.199219 14.210938 19.800781 13.414062 21.402344 13.832031 L 21.402344 9.695312 C 21.269531 9.679688 21.132812 9.671875 21 9.671875 " fill-opacity="1" fill-rule="nonzero"/><path fill="#ffffff" d="M 20.609375 12.976562 C 20.566406 12.972656 20.519531 12.972656 20.472656 12.972656 C 19.445312 12.972656 18.601562 13.386719 18.082031 13.722656 L 18.082031 10.308594 C 18.253906 10.175781 18.535156 9.984375 18.898438 9.816406 C 19.417969 9.574219 19.949219 9.449219 20.472656 9.449219 C 20.519531 9.449219 20.566406 9.453125 20.609375 9.453125 Z M 17.835938 10.1875 L 17.835938 14.207031 C 18.207031 13.90625 19.375 13.082031 20.855469 13.242188 L 20.855469 9.222656 C 19.375 9.058594 18.207031 9.882812 17.835938 10.1875 " fill-opacity="1" fill-rule="nonzero"/><path fill="#ffffff" d="M 26.128906 23.730469 L 26.058594 24.605469 L 26.867188 24.292969 C 26.675781 24.042969 26.417969 23.847656 26.128906 23.730469 Z M 27.609375 23.449219 C 27.40625 23.546875 27.15625 23.53125 26.964844 23.382812 C 26.769531 23.234375 26.683594 22.996094 26.722656 22.769531 C 26.5625 22.847656 26.375 22.855469 26.207031 22.785156 L 26.140625 23.582031 C 26.484375 23.714844 26.785156 23.941406 27.003906 24.238281 L 27.742188 23.953125 C 27.628906 23.808594 27.582031 23.625 27.609375 23.449219 Z M 30.53125 19.621094 L 29.875 20.511719 L 30.148438 20.71875 L 30.585938 20.132812 C 30.703125 19.972656 30.675781 19.75 30.53125 19.621094 Z M 27.839844 23.257812 C 27.710938 23.433594 27.714844 23.671875 27.835938 23.84375 L 30.007812 20.914062 L 29.730469 20.703125 Z M 29.761719 20.425781 L 30.417969 19.535156 L 29.640625 18.945312 L 28.984375 19.832031 Z M 26.949219 22.578125 C 26.789062 22.796875 26.832031 23.105469 27.046875 23.269531 C 27.261719 23.433594 27.566406 23.386719 27.726562 23.171875 L 29.617188 20.617188 L 28.839844 20.027344 Z M 29.527344 18.859375 C 29.367188 18.753906 29.148438 18.789062 29.03125 18.949219 L 28.59375 19.535156 L 28.871094 19.746094 Z M 26.839844 22.492188 L 28.726562 19.941406 L 28.449219 19.730469 L 26.28125 22.660156 C 26.480469 22.730469 26.707031 22.671875 26.839844 22.492188 " fill-opacity="1" fill-rule="nonzero"/><path fill="#ffffff" d="M 16.96875 20.261719 C 16.757812 20.261719 16.585938 20.433594 16.585938 20.648438 C 16.585938 20.863281 16.757812 21.039062 16.96875 21.039062 L 17.351562 21.039062 L 17.351562 20.648438 C 17.351562 20.433594 17.179688 20.261719 16.96875 20.261719 " fill-opacity="1" fill-rule="nonzero"/><path fill="#ffffff" d="M 17.769531 22.925781 C 17.945312 22.925781 18.089844 22.78125 18.089844 22.601562 L 18.089844 21.132812 L 17.445312 21.132812 L 17.445312 22.601562 C 17.445312 22.78125 17.589844 22.925781 17.769531 22.925781 " fill-opacity="1" fill-rule="nonzero"/><path fill="#ffffff" d="M 18.949219 20.648438 C 18.949219 20.433594 18.777344 20.261719 18.566406 20.261719 C 18.355469 20.261719 18.183594 20.433594 18.183594 20.648438 L 18.183594 21.039062 L 18.566406 21.039062 C 18.777344 21.039062 18.949219 20.863281 18.949219 20.648438 " fill-opacity="1" fill-rule="nonzero"/><path fill="#ffffff" d="M 19.132812 19.410156 C 18.769531 19.046875 18.285156 18.84375 17.769531 18.84375 L 17.765625 18.84375 C 17.246094 18.84375 16.757812 19.050781 16.394531 19.421875 C 16.027344 19.792969 15.828125 20.289062 15.828125 20.8125 C 15.828125 21.367188 16.058594 21.898438 16.464844 22.273438 C 16.6875 22.480469 16.878906 22.722656 17.03125 22.992188 L 17.03125 21.226562 L 17.125 21.226562 L 17.125 22.914062 C 17.253906 22.871094 17.351562 22.746094 17.351562 22.601562 L 17.351562 21.132812 L 16.96875 21.132812 C 16.707031 21.132812 16.492188 20.914062 16.492188 20.648438 C 16.492188 20.382812 16.707031 20.167969 16.96875 20.167969 C 17.234375 20.167969 17.445312 20.382812 17.445312 20.648438 L 17.445312 21.039062 L 18.089844 21.039062 L 18.089844 20.648438 C 18.089844 20.382812 18.304688 20.167969 18.566406 20.167969 C 18.828125 20.167969 19.042969 20.382812 19.042969 20.648438 C 19.042969 20.914062 18.828125 21.132812 18.566406 21.132812 L 18.183594 21.132812 L 18.183594 22.601562 C 18.183594 22.746094 18.28125 22.871094 18.414062 22.914062 L 18.414062 21.226562 L 18.507812 21.226562 L 18.507812 23.003906 C 18.660156 22.726562 18.855469 22.476562 19.085938 22.261719 C 19.488281 21.882812 19.71875 21.347656 19.710938 20.789062 C 19.703125 20.265625 19.5 19.777344 19.132812 19.410156 " fill-opacity="1" fill-rule="nonzero"/><path fill="#ffffff" d="M 18.4375 23.792969 C 18.4375 24.140625 18.199219 24.429688 17.878906 24.503906 C 18.128906 24.367188 18.292969 24.097656 18.292969 23.792969 L 18.292969 23.617188 L 18.4375 23.617188 Z M 16.964844 23.535156 L 16.964844 23.792969 C 16.964844 24.242188 17.324219 24.605469 17.769531 24.605469 C 18.210938 24.605469 18.570312 24.242188 18.570312 23.792969 L 18.570312 23.535156 L 16.964844 23.535156 " fill-opacity="1" fill-rule="nonzero"/><path fill="#ffffff" d="M 18.570312 23.148438 L 16.964844 23.148438 L 16.964844 23.367188 L 18.570312 23.367188 L 18.570312 23.148438 " fill-opacity="1" fill-rule="nonzero"/></svg>